<?xml version="1.0" encoding="UTF-8"?>
<!DOCTYPE svg PUBLIC "-//W3C//DTD SVG 1.1//EN" "http://www.w3.org/Graphics/SVG/1.1/DTD/svg11.dtd">
<!-- Creator: CorelDRAW -->
<svg xmlns="http://www.w3.org/2000/svg" xml:space="preserve" width="157.667mm" height="40.0274mm" style="shape-rendering:geometricPrecision; text-rendering:geometricPrecision; image-rendering:optimizeQuality; fill-rule:evenodd; clip-rule:evenodd"
viewBox="0 0 168.347 42.7386"
 xmlns:xlink="http://www.w3.org/1999/xlink">
 <defs>
  <style type="text/css">
   <![CDATA[
    .fil10 {fill:#4C4C4C}
    .fil5 {fill:#CCCCCC}
    .fil6 {fill:#E5E5E5}
    .fil9 {fill:#333333}
    .fil8 {fill:#7F7F7F}
    .fil7 {fill:#B2B2B2}
    .fil2 {fill:#960E10}
    .fil1 {fill:#C31013}
    .fil3 {fill:black;fill-rule:nonzero}
    .fil4 {fill:white;fill-rule:nonzero}
    .fil0 {fill:#BA1F00;fill-rule:nonzero}
   ]]>
  </style>
   <mask id="id0">
  <linearGradient id="id1" gradientUnits="userSpaceOnUse" x1="20.1687" y1="32.3109" x2="19.586" y2="10.4277">
   <stop offset="0" style="stop-opacity:1; stop-color:white"/>
   <stop offset="1" style="stop-opacity:0; stop-color:white"/>
  </linearGradient>
    <rect style="fill:url(#id1)" x="-0.106773" y="-0.106773" width="39.9682" height="42.9521"/>
   </mask>
   <mask id="id2">
  <linearGradient id="id3" gradientUnits="userSpaceOnUse" x1="27.6432" y1="15.9415" x2="28.817" y2="25.7817">
   <stop offset="0" style="stop-opacity:1; stop-color:white"/>
   <stop offset="1" style="stop-opacity:0; stop-color:white"/>
  </linearGradient>
    <rect style="fill:url(#id3)" x="26.1985" y="1.79134" width="4.06304" height="38.1405"/>
   </mask>
   <mask id="id4">
  <linearGradient id="id5" gradientUnits="userSpaceOnUse" x1="22.7043" y1="17.748" x2="27.7719" y2="24.0416">
   <stop offset="0" style="stop-opacity:1; stop-color:white"/>
   <stop offset="1" style="stop-opacity:0; stop-color:white"/>
  </linearGradient>
    <rect style="fill:url(#id5)" x="23.9454" y="1.79208" width="2.58541" height="38.2053"/>
   </mask>
   <mask id="id6">
  <linearGradient id="id7" gradientUnits="userSpaceOnUse" x1="10.4064" y1="15.2935" x2="15.9125" y2="22.1312">
   <stop offset="0" style="stop-opacity:1; stop-color:white"/>
   <stop offset="1" style="stop-opacity:0; stop-color:white"/>
  </linearGradient>
    <rect style="fill:url(#id7)" x="12.2075" y="2.71033" width="1.90398" height="32.004"/>
   </mask>
   <mask id="id8">
  <linearGradient id="id9" gradientUnits="userSpaceOnUse" x1="14.9122" y1="13.2903" x2="15.9803" y2="24.0526">
   <stop offset="0" style="stop-opacity:1; stop-color:white"/>
   <stop offset="1" style="stop-opacity:0; stop-color:white"/>
  </linearGradient>
    <rect style="fill:url(#id9)" x="13.8065" y="2.73382" width="3.27943" height="31.8751"/>
   </mask>
 </defs>
 <g id="Camada_x0020_1">
  <metadata id="CorelCorpID_0Corel-Layer"/>
  <path class="fil0" d="M46.5553 24.431l-0.571984 10.3528c-0.0125992,0.0829628 -0.0285085,0.148095 -0.0475141,0.195395 -0.0190056,0.0474073 -0.0475141,0.0830696 -0.0858457,0.10656 -0.0382248,0.0235969 -0.082429,0.0384384 -0.133253,0.0443109 -0.0509309,0.00587253 -0.108161,0.00896896 -0.171691,0.00896896l-0.953379 0c-0.0635301,0 -0.120654,-0.00309643 -0.171585,-0.00896896 -0.0508241,-0.00587253 -0.0890489,-0.0265865 -0.114354,-0.0619285 -0.0382248,-0.0238104 -0.0635301,-0.0591524 -0.0761293,-0.10656 -0.0130263,-0.0474073 -0.019326,-0.0948147 -0.019326,-0.142222l0.610209 -11.1696c0,-0.0473006 0.0125992,-0.0919318 0.0382248,-0.133146 0.0253053,-0.0415348 0.0572305,-0.0739939 0.095135,-0.0979111 0.0382248,-0.0234901 0.0827493,-0.0442041 0.13368,-0.0619285 0.0508241,-0.0179379 0.108055,-0.0265865 0.171585,-0.0265865l3.31745 -0.0356623c0.558958,0.0235969 1.08343,0.100687 1.57288,0.230737 0.489235,0.130477 0.943769,0.331424 1.36317,0.604016 0.419299,0.260206 0.733853,0.6006 0.943769,1.02086 0.209489,0.420366 0.314554,0.920492 0.314554,1.5007 0,0.580099 -0.108055,1.11557 -0.32427,1.60683 -0.216109,0.491584 -0.546359,0.932344 -0.991283,1.32324 -0.432325,0.390577 -0.915154,0.683563 -1.44891,0.878958 -0.53408,0.195182 -1.11236,0.292986 -1.73517,0.292986l-0.915154 -0.0355555c0,0.0117451 -0.00298965,0.0176176 -0.00928928,0.0176176 -0.00672672,0 -0.016016,0 -0.0286152,0 -0.0130263,0 -0.0223156,0 -0.0286152,0 -0.00661994,0 -0.00960959,0 -0.00960959,0 -0.0509309,0 -0.0921453,-0.00864864 -0.124071,-0.0265865 -0.0316049,-0.0177244 -0.0602201,-0.0384384 -0.0858457,-0.0620353 -0.0251985,-0.0355555 -0.0445245,-0.0770903 -0.0571237,-0.124498 -0.012706,-0.047087 -0.0190056,-0.100367 -0.0190056,-0.159733 0,-0.0118518 0,-0.0266933 0,-0.0443109 0,-0.0177244 0,-0.0325658 0,-0.0443109 0,-0.0238104 0,-0.0446312 0,-0.0622488 0,-0.0177244 0,-0.0325658 0,-0.0443109 0,-0.0117451 0,-0.020714 0,-0.0265865 0,-0.0059793 0,-0.0149483 0,-0.0266933 0,-0.0117451 0,-0.0238104 0,-0.0356623 0,-0.0117451 0,-0.0234901 0,-0.0355555 0,-0.0591524 0.00629962,-0.121081 0.0190056,-0.186426 0.0125992,-0.0651317 0.0319252,-0.121188 0.0571237,-0.168595 0.0256256,-0.0591524 0.0698297,-0.103677 0.13368,-0.133146 0.0635301,-0.029683 0.139766,-0.0446312 0.228815,-0.0446312 0.482829,0 0.92786,-0.0411077 1.33456,-0.124177 0.406699,-0.0826425 0.775067,-0.201268 1.10564,-0.355235 0.33057,-0.165712 0.588,-0.411291 0.772184,-0.736842 0.184184,-0.325552 0.301955,-0.742715 0.352779,-1.25192 0,-0.402428 -0.0571237,-0.76076 -0.171585,-1.07414 -0.114354,-0.313807 -0.285939,-0.583302 -0.514754,-0.808167 -0.228815,-0.23693 -0.508454,-0.411291 -0.839024,-0.523723 -0.330463,-0.112753 -0.717944,-0.168809 -1.16287,-0.168809l-1.75418 -0.0356623zm14.3373 6.16221c-0.0509309,0.141795 -0.101755,0.281241 -0.152365,0.417163 -0.0508241,0.136243 -0.108055,0.269496 -0.171585,0.399546 -0.0256256,0.0708975 -0.0542408,0.142222 -0.0857389,0.213119 -0.0319252,0.0708975 -0.0668401,0.136243 -0.105172,0.195395 -0.0251985,0.0710042 -0.0571237,0.141902 -0.0950282,0.213119 -0.0382248,0.0708975 -0.0765564,0.141902 -0.114461,0.213119 -0.20351,0.390577 -0.438625,0.766525 -0.705665,1.12742 -0.266613,0.361107 -0.565578,0.7015 -0.895828,1.02118 -0.317864,0.331424 -0.673739,0.574227 -1.06784,0.728194 -0.393993,0.153967 -0.819698,0.230737 -1.27722,0.230737 -0.381501,0 -0.708654,-0.0591524 -0.981994,-0.177457 -0.27334,-0.118625 -0.492545,-0.307934 -0.65783,-0.568354 -0.165285,-0.260527 -0.298645,-0.532799 -0.4004,-0.816816 -0.101755,-0.284337 -0.171585,-0.580099 -0.209809,-0.888033 -0.0125992,-0.0708975 -0.0251985,-0.144891 -0.0379045,-0.221982 -0.0129196,-0.0768768 -0.0192192,-0.156743 -0.0192192,-0.239813 0,-0.0352352 0,-0.0708975 0,-0.10656 0,-0.0352352 0,-0.07677 0,-0.124177 0,-0.0355555 0,-0.0708975 0,-0.10656 0,-0.0355555 0,-0.0708975 0,-0.10656 0,-0.165712 0.00629962,-0.328541 0.0192192,-0.488381 0.012706,-0.15984 0.0253053,-0.328328 0.0379045,-0.506105 0.0256256,-0.165712 0.0542408,-0.337297 0.0858457,-0.514754 0.0319252,-0.177778 0.0668401,-0.355341 0.105065,-0.532799 0.152259,-0.60391 0.368475,-1.1838 0.648114,-1.7404 0.279639,-0.556289 0.629215,-1.08898 1.04851,-1.59818 0.419619,-0.508881 0.912164,-0.890809 1.47785,-1.14536 0.565258,-0.254654 1.20408,-0.381608 1.91605,-0.381608 0.19059,0 0.378084,0.0117451 0.562375,0.035342 0.184184,0.0238104 0.365485,0.0650249 0.543369,0.124498 0.177884,0.047087 0.349469,0.10656 0.514754,0.177457 0.165285,0.0708975 0.33057,0.148095 0.495855,0.230737 0,-0.0474073 0.00928928,-0.0917182 0.0286152,-0.133146 0.0188989,-0.0415348 0.0349149,-0.0799732 0.0475141,-0.115208 0.0253053,-0.0356623 0.0602201,-0.0622488 0.104745,-0.0799732 0.0445245,-0.0179379 0.098445,-0.0265865 0.162295,-0.0265865l0.762468 -0.0356623c0.0635301,0.0235969 0.117451,0.0443109 0.161975,0.0622488 0.0445245,0.0177244 0.0795461,0.0384384 0.104745,0.0619285 0.0256256,0.0356623 0.0479412,0.0741007 0.0668401,0.115529 0.0190056,0.0415348 0.0286152,0.0917182 0.0286152,0.150871l-0.514754 9.12751c-0.0125992,0.0829628 -0.0286152,0.148095 -0.0476209,0.195395 -0.0188989,0.0474073 -0.0412145,0.0830696 -0.0668401,0.10656 -0.0379045,0.0235969 -0.0794393,0.0384384 -0.123643,0.0443109 -0.0445245,0.00587253 -0.0987653,0.00896896 -0.162295,0.00896896l-0.915154 0c-0.0635301,0 -0.117344,-0.00309643 -0.161975,-0.00896896 -0.0445245,-0.00587253 -0.0794393,-0.0265865 -0.104745,-0.0619285 -0.0256256,-0.0238104 -0.0445245,-0.0591524 -0.0571237,-0.10656 -0.0130263,-0.0474073 -0.019326,-0.0948147 -0.019326,-0.142222l0.228815 -4.22619zm0.400293 -4.06678c-0.126953,-0.047087 -0.263623,-0.0975908 -0.409689,-0.150871 -0.146279,-0.0532799 -0.289249,-0.0975908 -0.428908,-0.133253 -0.152686,-0.0352352 -0.305265,-0.0650249 -0.45763,-0.088515 -0.152579,-0.0239172 -0.305265,-0.0356623 -0.457523,-0.0356623 -0.546679,0 -1.03292,0.100687 -1.45852,0.301741 -0.426025,0.201268 -0.785211,0.49735 -1.07745,0.887927 -0.292345,0.390577 -0.540059,0.802294 -0.743569,1.2343 -0.20319,0.432111 -0.355875,0.884937 -0.45763,1.35848 -0.0379045,0.177457 -0.0698297,0.355021 -0.0950282,0.532799 -0.0256256,0.177457 -0.0509309,0.354914 -0.0765564,0.532692 -0.0125992,0.177457 -0.0251985,0.346266 -0.0379045,0.506105 -0.0129196,0.15984 -0.0192192,0.316583 -0.0192192,0.47055 0,0.0473006 0,0.103677 0,0.168702 0,0.0651317 0,0.127381 0,0.186533 0,0.0591524 0.00330997,0.121081 0.00960959,0.186426 0.00629962,0.0650249 0.0159092,0.127274 0.0286152,0.186426 0.0251985,0.177564 0.0605404,0.346373 0.104745,0.506105 0.0445245,0.15984 0.105065,0.31071 0.181194,0.452825 0.0761293,0.141902 0.174895,0.248461 0.295655,0.319679 0.120654,0.0708975 0.26373,0.10656 0.429015,0.10656 0.20319,0 0.393673,-0.0325658 0.571878,-0.0979111 0.177991,-0.0650249 0.343276,-0.168488 0.495535,-0.310603 0.152686,-0.142222 0.298645,-0.289889 0.438625,-0.443857 0.139659,-0.153967 0.26704,-0.313807 0.381394,-0.479519 0.0253053,-0.0355555 0.0476209,-0.0681214 0.0665198,-0.0978043 0.019326,-0.0294694 0.0412145,-0.0620353 0.0668401,-0.0975908 0.012706,-0.0235969 0.0316049,-0.0532799 0.0572305,-0.0889421 0.0253053,-0.0352352 0.0445245,-0.0708975 0.0572305,-0.10656 0.0382248,-0.0591524 0.0761293,-0.121081 0.114354,-0.186426 0.0382248,-0.0650249 0.0761293,-0.121081 0.114354,-0.168488 0.26704,-0.414387 0.52116,-0.840626 0.762575,-1.27861 0.241414,-0.437877 0.47023,-0.882054 0.686339,-1.33178 0.216216,-0.450049 0.39741,-0.908747 0.543369,-1.37652 0.146386,-0.467347 0.251131,-0.943983 0.314554,-1.42937l0 -0.0355555zm5.92965 3.00129c0.0251985,-0.0830696 0.0505038,-0.18066 0.0761293,-0.293093 0.0253053,-0.112432 0.0572305,-0.227961 0.0954553,-0.346266 0.0379045,-0.118305 0.0761293,-0.23693 0.114354,-0.355235 0.0379045,-0.118305 0.082429,-0.23661 0.13336,-0.355235 0.139659,-0.378832 0.308254,-0.745811 0.505144,-1.10083 0.19721,-0.355235 0.422609,-0.692531 0.677049,-1.01221 0.254014,-0.319572 0.565365,-0.562482 0.934053,-0.728194 0.368475,-0.165712 0.7882,-0.248355 1.25843,-0.248355 0.0125992,0 0.0251985,0 0.0382248,0 0.0125992,0 0.0316049,0 0.0571237,0 0.012706,0.0117451 0.0286152,0.0176176 0.0476209,0.0176176 0.0188989,0 0.0349149,0 0.0475141,0 0.0256256,0 0.0542408,0 0.0858457,0 0.0319252,0 0.0668401,0 0.105065,0 0.0888354,0.0118518 0.171585,0.0325658 0.247714,0.0622488 0.0761293,0.0294694 0.152686,0.0620353 0.228815,0.0975908 0.0635301,0.0474073 0.114354,0.100687 0.152686,0.15984 0.0379045,0.0591524 0.0571237,0.13005 0.0571237,0.213119l-0.0571237 0.994166c0,0.0239172 0,0.0415348 0,0.0532799 0,0.0120654 0,0.0180447 0,0.0180447 -0.0130263,0.0352352 -0.0256256,0.0650249 -0.0383316,0.088515 -0.0125992,0.0239172 -0.0319252,0.0474073 -0.0571237,0.0712178 -0.012706,0.0235969 -0.0349149,0.0415348 -0.0668401,0.0532799 -0.0316049,0.0118518 -0.0602201,0.0177244 -0.0858457,0.0177244 -0.0125992,0 -0.0253053,0 -0.0379045,0 -0.0129196,0 -0.0256256,0 -0.0382248,0 -0.0125992,0 -0.0223156,0 -0.0286152,0 -0.00629962,0 -0.00960959,0 -0.00960959,0 -0.012706,0 -0.0223156,-0.00277611 -0.0286152,-0.00896896 -0.00629962,-0.0059793 -0.016016,-0.00875541 -0.0286152,-0.00875541 -0.0125992,0 -0.0286152,0 -0.0475141,0 -0.0190056,0 -0.0349149,-0.00587253 -0.0476209,-0.0179379 -0.0255188,0 -0.0445245,-0.00277611 -0.0571237,-0.00864864 -0.0130263,-0.00587253 -0.0319252,-0.0148415 -0.0572305,-0.0266933 -0.0382248,-0.0117451 -0.0731397,-0.0265865 -0.105065,-0.0445245 -0.0316049,-0.0177244 -0.0602201,-0.0325658 -0.0858457,-0.0443109 -0.0251985,-0.0117451 -0.0508241,-0.020714 -0.0761293,-0.0266933 -0.0256256,-0.00587253 -0.0508241,-0.0148415 -0.0761293,-0.0265865 -0.0382248,0 -0.07015,-0.00277611 -0.0954553,-0.00896896 -0.0256256,-0.00587253 -0.0509309,-0.0146279 -0.0761293,-0.0266933 -0.0256256,-0.0117451 -0.0509309,-0.0203937 -0.0765564,-0.0265865 -0.0251985,-0.00587253 -0.0508241,-0.00864864 -0.0761293,-0.00864864 -0.0382248,-0.0118518 -0.0698297,-0.0180447 -0.0954553,-0.0180447 -0.0251985,0 -0.0508241,0 -0.0761293,0 -0.165285,0 -0.314554,0.0239172 -0.447914,0.0713245 -0.13368,0.0473006 -0.25743,0.118305 -0.371785,0.213013 -0.114354,0.0948147 -0.216109,0.195182 -0.305265,0.301741 -0.0888354,0.10656 -0.171585,0.219312 -0.247714,0.337617 -0.317971,0.473539 -0.6006,0.967579 -0.848314,1.48265 -0.248141,0.515074 -0.46094,1.04478 -0.638825,1.58921 -0.177991,0.544864 -0.32427,1.09528 -0.438625,1.65157 -0.114461,0.556502 -0.20319,1.11279 -0.26672,1.6694 0,0.035342 -0.00330997,0.0708975 -0.00960959,0.10656 -0.0064064,0.035342 -0.00971637,0.0708975 -0.00971637,0.10656 -0.0125992,0.0474073 -0.0188989,0.088515 -0.0188989,0.124177 0,0.0356623 0,0.0708975 0,0.10656 -0.012706,0.0708975 -0.0190056,0.142115 -0.0190056,0.213119 0,0.0708975 0,0.142115 0,0.213013 -0.0129196,0.0592592 -0.0286152,0.112539 -0.0478344,0.15984 -0.0190056,0.0474073 -0.0476209,0.0830696 -0.0858457,0.10656 -0.0379045,0.0235969 -0.082429,0.0384384 -0.13336,0.0443109 -0.0508241,0.00587253 -0.108055,0.00896896 -0.171585,0.00896896l-0.839024 0c-0.0634233,0 -0.120654,-0.00309643 -0.171585,-0.00896896 -0.0508241,-0.00587253 -0.0887286,-0.0265865 -0.114354,-0.0619285 -0.0379045,-0.0238104 -0.0635301,-0.0591524 -0.0761293,-0.10656 -0.012706,-0.0474073 -0.0190056,-0.0948147 -0.0190056,-0.142222l0.495535 -9.19841c0,-0.0473006 0.0129196,-0.0919318 0.0382248,-0.133146 0.0253053,-0.0415348 0.0572305,-0.0798664 0.0954553,-0.115529 0.0379045,-0.0238104 0.082429,-0.0443109 0.13336,-0.0622488 0.0508241,-0.0176176 0.108055,-0.0266933 0.171585,-0.0266933l0.839024 -0.0352352c0.0634233,0.0234901 0.120654,0.0443109 0.171585,0.0619285 0.0505038,0.0179379 0.0887286,0.0446312 0.114354,0.0798664 0.0253053,0.0356623 0.0475141,0.0741007 0.0665198,0.115529 0.019326,0.0415348 0.0286152,0.0917182 0.0286152,0.150871l-0.209489 3.87139zm12.1255 1.06549c-0.0509309,0.141795 -0.101755,0.281241 -0.152365,0.417163 -0.0508241,0.136243 -0.108055,0.269496 -0.171585,0.399546 -0.0256256,0.0708975 -0.0542408,0.142222 -0.0857389,0.213119 -0.0319252,0.0708975 -0.0668401,0.136243 -0.105172,0.195395 -0.0251985,0.0710042 -0.0571237,0.141902 -0.0950282,0.213119 -0.0382248,0.0708975 -0.0765564,0.141902 -0.114461,0.213119 -0.20351,0.390577 -0.438625,0.766525 -0.705665,1.12742 -0.266613,0.361107 -0.565578,0.7015 -0.895828,1.02118 -0.317864,0.331424 -0.673739,0.574227 -1.06784,0.728194 -0.393993,0.153967 -0.819698,0.230737 -1.27722,0.230737 -0.381501,0 -0.708654,-0.0591524 -0.981994,-0.177457 -0.27334,-0.118625 -0.492545,-0.307934 -0.65783,-0.568354 -0.165285,-0.260527 -0.298645,-0.532799 -0.4004,-0.816816 -0.101755,-0.284337 -0.171585,-0.580099 -0.209809,-0.888033 -0.0125992,-0.0708975 -0.0251985,-0.144891 -0.0379045,-0.221982 -0.0129196,-0.0768768 -0.0192192,-0.156743 -0.0192192,-0.239813 0,-0.0352352 0,-0.0708975 0,-0.10656 0,-0.0352352 0,-0.07677 0,-0.124177 0,-0.0355555 0,-0.0708975 0,-0.10656 0,-0.0355555 0,-0.0708975 0,-0.10656 0,-0.165712 0.00629962,-0.328541 0.0192192,-0.488381 0.012706,-0.15984 0.0253053,-0.328328 0.0379045,-0.506105 0.0256256,-0.165712 0.0542408,-0.337297 0.0858457,-0.514754 0.0319252,-0.177778 0.0668401,-0.355341 0.105065,-0.532799 0.152259,-0.60391 0.368475,-1.1838 0.648114,-1.7404 0.279639,-0.556289 0.629215,-1.08898 1.04851,-1.59818 0.419619,-0.508881 0.912164,-0.890809 1.47785,-1.14536 0.565258,-0.254654 1.20408,-0.381608 1.91605,-0.381608 0.19059,0 0.378084,0.0117451 0.562375,0.035342 0.184184,0.0238104 0.365485,0.0650249 0.543369,0.124498 0.177884,0.047087 0.349469,0.10656 0.514754,0.177457 0.165285,0.0708975 0.33057,0.148095 0.495855,0.230737 0,-0.0474073 0.00928928,-0.0917182 0.0286152,-0.133146 0.0188989,-0.0415348 0.0349149,-0.0799732 0.0475141,-0.115208 0.0253053,-0.0356623 0.0602201,-0.0622488 0.104745,-0.0799732 0.0445245,-0.0179379 0.098445,-0.0265865 0.162295,-0.0265865l0.762468 -0.0356623c0.0635301,0.0235969 0.117451,0.0443109 0.161975,0.0622488 0.0446312,0.0177244 0.0795461,0.0384384 0.104745,0.0619285 0.0256256,0.0356623 0.0479412,0.0741007 0.0668401,0.115529 0.0190056,0.0415348 0.0286152,0.0917182 0.0286152,0.150871l-0.514754 9.12751c-0.0125992,0.0829628 -0.0286152,0.148095 -0.0475141,0.195395 -0.0190056,0.0474073 -0.0413213,0.0830696 -0.0669468,0.10656 -0.0379045,0.0235969 -0.0794393,0.0384384 -0.123643,0.0443109 -0.0445245,0.00587253 -0.0987653,0.00896896 -0.162295,0.00896896l-0.915154 0c-0.0635301,0 -0.117344,-0.00309643 -0.161975,-0.00896896 -0.0445245,-0.00587253 -0.0794393,-0.0265865 -0.104745,-0.0619285 -0.0256256,-0.0238104 -0.0445245,-0.0591524 -0.0571237,-0.10656 -0.0130263,-0.0474073 -0.019326,-0.0948147 -0.019326,-0.142222l0.228815 -4.22619zm0.400293 -4.06678c-0.126953,-0.047087 -0.263623,-0.0975908 -0.409689,-0.150871 -0.146279,-0.0532799 -0.289249,-0.0975908 -0.428908,-0.133253 -0.152686,-0.0352352 -0.305265,-0.0650249 -0.45763,-0.088515 -0.152579,-0.0239172 -0.305265,-0.0356623 -0.457523,-0.0356623 -0.546679,0 -1.03292,0.100687 -1.45852,0.301741 -0.426025,0.201268 -0.785211,0.49735 -1.07745,0.887927 -0.292345,0.390577 -0.540059,0.802294 -0.743569,1.2343 -0.20319,0.432111 -0.355875,0.884937 -0.45763,1.35848 -0.0379045,0.177457 -0.0698297,0.355021 -0.0950282,0.532799 -0.0256256,0.177457 -0.0509309,0.354914 -0.0765564,0.532692 -0.0125992,0.177457 -0.0251985,0.346266 -0.0379045,0.506105 -0.0129196,0.15984 -0.0192192,0.316583 -0.0192192,0.47055 0,0.0473006 0,0.103677 0,0.168702 0,0.0651317 0,0.127381 0,0.186533 0,0.0591524 0.00330997,0.121081 0.00960959,0.186426 0.00629962,0.0650249 0.0159092,0.127274 0.0286152,0.186426 0.0251985,0.177564 0.0605404,0.346373 0.104745,0.506105 0.0445245,0.15984 0.105065,0.31071 0.181194,0.452825 0.0761293,0.141902 0.174895,0.248461 0.295655,0.319679 0.120654,0.0708975 0.26373,0.10656 0.429015,0.10656 0.20319,0 0.393673,-0.0325658 0.571878,-0.0979111 0.177991,-0.0650249 0.343276,-0.168488 0.495535,-0.310603 0.152686,-0.142222 0.298645,-0.289889 0.438625,-0.443857 0.139659,-0.153967 0.26704,-0.313807 0.381394,-0.479519 0.0253053,-0.0355555 0.0476209,-0.0681214 0.0665198,-0.0978043 0.019326,-0.0294694 0.0412145,-0.0620353 0.0668401,-0.0975908 0.012706,-0.0235969 0.0316049,-0.0532799 0.0572305,-0.0889421 0.0253053,-0.0352352 0.0445245,-0.0708975 0.0572305,-0.10656 0.0382248,-0.0591524 0.0761293,-0.121081 0.114354,-0.186426 0.0382248,-0.0650249 0.0761293,-0.121081 0.114354,-0.168488 0.26704,-0.414387 0.52116,-0.840626 0.762575,-1.27861 0.241414,-0.437877 0.47023,-0.882054 0.686339,-1.33178 0.216216,-0.450049 0.39741,-0.908747 0.543369,-1.37652 0.146386,-0.467347 0.251131,-0.943983 0.314554,-1.42937l0 -0.0355555zm11.5922 -0.124284l-0.343169 6.12654c0,0.23661 0.0188989,0.449729 0.0571237,0.639252 0.0383316,0.189629 0.0954553,0.355235 0.171585,0.497136 0.0762361,0.153967 0.20319,0.269496 0.381501,0.346266 0.177884,0.0771971 0.406699,0.121401 0.686339,0.133253 0.101435,0 0.20319,-0.0059793 0.304944,-0.0177244 0.101755,-0.0117451 0.20319,-0.0234901 0.304944,-0.0355555 0.101755,-0.0235969 0.2002,-0.0474073 0.295655,-0.0710042 0.0954553,-0.0234901 0.187494,-0.0532799 0.276329,-0.0888354 0.0382248,-0.0117451 0.0794393,-0.0235969 0.124071,-0.035342 0.0445245,-0.0120654 0.0857389,-0.0238104 0.123964,-0.0356623 0.0379045,0 0.0762361,-0.00587253 0.114461,-0.0176176 0.0379045,-0.0120654 0.0761293,-0.0238104 0.114354,-0.0355555 0.0761293,-0.0235969 0.142969,-0.0415348 0.2002,-0.0532799 0.0572305,-0.0118518 0.111044,-0.0177244 0.161975,-0.0177244 0.0251985,0 0.0412145,0.00277611 0.0475141,0.00864864 0.00629962,0.0059793 0.016016,0.0149483 0.0286152,0.0266933 0,0.0120654 0.00330997,0.020714 0.00960959,0.0265865 0.00629962,0.0059793 0.016016,0.00907573 0.0286152,0.00907573 0,0.0117451 0.00298965,0.020714 0.00960959,0.0265865 0.0064064,0.00587253 0.00939605,0.0148415 0.00939605,0.0265865 0,0.0118518 0,0.0208208 0,0.0266933 0,0.00587253 0,0.00896896 0,0.00896896 0,0.0117451 0,0.020714 0,0.0266933 0,0.00587253 0,0.00864864 0,0.00864864l-0.0190056 0.585972c-0.0125992,0.118625 -0.0508241,0.216216 -0.114354,0.292986 -0.0635301,0.0771971 -0.165285,0.145318 -0.304944,0.204471 -0.127381,0.0474073 -0.26704,0.0886218 -0.419726,0.124177 -0.152259,0.0356623 -0.304944,0.0708975 -0.457523,0.10656 -0.114461,0.0235969 -0.228815,0.0384384 -0.343169,0.0443109 -0.114461,0.00587253 -0.228815,0.0148415 -0.343169,0.0265865 -0.114461,0.0120654 -0.209596,0.0208208 -0.286046,0.0266933 -0.0761293,0.00587253 -0.139659,0.00896896 -0.19059,0.00896896 -0.432218,0 -0.816709,-0.0532799 -1.15358,-0.15984 -0.33687,-0.10656 -0.613199,-0.272272 -0.829308,-0.497136 -0.228815,-0.225185 -0.39709,-0.491477 -0.505144,-0.799091 -0.108055,-0.307827 -0.161975,-0.663169 -0.161975,-1.06549l0.362175 -6.4285 -1.06784 0c-0.0125992,0.0118518 -0.0222088,0.0177244 -0.0286152,0.0177244 -0.00629962,0 -0.00928928,0 -0.00928928,0 -0.0129196,0 -0.0222088,0 -0.0286152,0 -0.00629962,0 -0.0159092,0 -0.0285085,0 -0.0383316,0 -0.0702568,-0.00587253 -0.0954553,-0.0177244 -0.0253053,-0.0117451 -0.0509309,-0.0234901 -0.0761293,-0.0355555 -0.0256256,-0.0235969 -0.0446312,-0.056056 -0.0572305,-0.0975908 -0.0130263,-0.0415348 -0.019326,-0.0858457 -0.019326,-0.133146l0 -0.0886218c0,0.0117451 0,0.0176176 0,0.0176176 0,0 0,-0.00587253 0,-0.0176176 0,-0.0120654 0,-0.020714 0,-0.0266933 0,-0.00619285 0,-0.0148415 0,-0.0265865 0,0 0,-0.00309643 0,-0.00896896 0,-0.00587253 0,-0.0148415 0,-0.0266933 0,-0.0117451 0,-0.020714 0,-0.0265865 0,-0.00587253 0,-0.0148415 0,-0.0266933 0,0 0,-0.00309643 0,-0.00896896 0,-0.00587253 0,-0.0148415 0,-0.0265865 0,-0.0117451 0,-0.0208208 0,-0.0266933 0,-0.00587253 0,-0.0148415 0,-0.0265865 0,-0.0591524 0.00629962,-0.121401 0.019326,-0.186426 0.0125992,-0.0651317 0.0316049,-0.121508 0.0572305,-0.168488 0.0251985,-0.0594727 0.0634233,-0.100687 0.114354,-0.124604 0.0508241,-0.0234901 0.120654,-0.0352352 0.209489,-0.0352352l1.06784 -0.0356623 0.133253 -2.30844c0,-0.0474073 0.00971637,-0.0919318 0.0286152,-0.133146 0.019326,-0.0415348 0.0479412,-0.0799732 0.0858457,-0.115529 0.0382248,-0.0239172 0.0827493,-0.0443109 0.13368,-0.0622488 0.0508241,-0.0177244 0.108055,-0.0266933 0.171585,-0.0266933l0.857923 -0.0352352c0.0635301,0.0234901 0.120761,0.0442041 0.171585,0.0619285 0.0506105,0.0179379 0.0888354,0.0383316 0.114461,0.0622488 0.0251985,0.0355555 0.0475141,0.07677 0.0665198,0.124177 0.0192192,0.0474073 0.0285085,0.100687 0.0285085,0.15984l-0.133253 2.2731 3.16476 0c0.0635301,0.0235969 0.120761,0.0443109 0.171585,0.0622488 0.0509309,0.0177244 0.0828561,0.0443109 0.0954553,0.0799732 0.0253053,0.0352352 0.0445245,0.0736736 0.0572305,0.115208 0.0125992,0.041428 0.0188989,0.0857389 0.0188989,0.133146 0,0.0117451 0,0.020714 0,0.0266933 0,0.00587253 0,0.00896896 0,0.00896896 0,0.0117451 0,0.020714 0,0.0265865 0,0.00587253 0,0.0148415 0,0.0266933 0,0.0117451 0,0.020714 0,0.0265865 0,0.00587253 0,0.00896896 0,0.00896896 0,0.0117451 0,0.0205005 0,0.0266933 0,0.00587253 0,0.0145212 0,0.0265865 0,0.0117451 0,0.0205005 0,0.0266933 0,0.00587253 0,0.0145212 0,0.0265865 0,0.0117451 0,0.0205005 0,0.0266933 0,0.00587253 0,0.00864864 0,0.00864864 0,0.0712178 -0.00629962,0.133146 -0.0188989,0.186426 -0.012706,0.0532799 -0.0319252,0.109656 -0.0572305,0.168809 -0.0256256,0.0474073 -0.0668401,0.0858457 -0.124071,0.115208 -0.0571237,0.0297897 -0.13037,0.0446312 -0.219099,0.0446312l-3.14586 -0.0356623zm4.11825 3.83572c0,-0.0474073 0.00330997,-0.10656 0.00960959,-0.177457 0.00629962,-0.0712178 0.0159092,-0.148095 0.0286152,-0.231057 0,-0.035342 0.00330997,-0.0708975 0.00960959,-0.10656 0.00629962,-0.035342 0.0155889,-0.07677 0.0286152,-0.124177 0.0125992,-0.0356623 0.0223156,-0.0708975 0.0286152,-0.10656 0.00629962,-0.0356623 0.0155889,-0.0708975 0.0286152,-0.10656 0.101328,-0.532692 0.266613,-1.04777 0.495428,-1.5449 0.228815,-0.497136 0.514754,-0.964803 0.857923,-1.40279 0.343276,-0.450049 0.765885,-0.787346 1.26804,-1.01221 0.502155,-0.224865 1.08343,-0.337297 1.74446,-0.337297 0.686445,0 1.27733,0.109336 1.77318,0.328328 0.495748,0.218992 0.902448,0.553513 1.2201,1.00324 0.305265,0.438198 0.53707,0.911844 0.695948,1.42073 0.158985,0.509202 0.238425,1.05364 0.238425,1.63384 0,0.141795 -0.00330997,0.284017 -0.00960959,0.426132 -0.00629962,0.141902 -0.0223156,0.284017 -0.0475141,0.426239 -0.0130263,0.0708975 -0.0223156,0.141795 -0.0286152,0.213119 -0.00661994,0.0708975 -0.016016,0.141795 -0.0286152,0.213013 -0.0129196,0.0827493 -0.0256256,0.15984 -0.0382248,0.230844 -0.0125992,0.0708975 -0.0256256,0.142115 -0.0382248,0.213013 -0.114461,0.532799 -0.289035,1.042 -0.52415,1.52728 -0.235435,0.485391 -0.524364,0.953058 -0.867533,1.40279 -0.343169,0.437984 -0.762575,0.766632 -1.25832,0.985624 -0.495855,0.218992 -1.06154,0.328541 -1.69705,0.328541 -0.686339,0 -1.28053,-0.109549 -1.78237,-0.328541 -0.502155,-0.218992 -0.905864,-0.553513 -1.21081,-1.00324 -0.317864,-0.450049 -0.552979,-0.929568 -0.705344,-1.43845 -0.152579,-0.509202 -0.228815,-1.05364 -0.228815,-1.63384 0,-0.0591524 0,-0.121401 0,-0.186426 0,-0.0650249 0,-0.133146 0,-0.204151 0,-0.0591524 0.00298965,-0.121401 0.00939605,-0.186426 0.00629962,-0.0650249 0.0159092,-0.127274 0.0286152,-0.186426l0 -0.0356623zm1.63972 0.0532799c-0.0125992,0.0710042 -0.0190056,0.136349 -0.0190056,0.195502 0,0.0591524 0,0.118305 0,0.177457 0,0.0238104 0,0.0505038 0,0.0798664 0,0.0297897 0,0.0563763 0,0.0799732 0,0.0355555 0,0.0681214 0,0.097484 0,0.0297897 0,0.0563763 0,0.0799732 0,0.0238104 0,0.0505038 0,0.0798664 0,0.0297897 0,0.0563763 0,0.0799732 0,0.0355555 0,0.0681214 0,0.0978043 0,0.0294694 0,0.056056 0,0.0799732 0,0.0591524 0.00298965,0.118305 0.00939605,0.177457 0.00629962,0.0591524 0.0159092,0.118305 0.0286152,0.177457 0.0255188,0.331745 0.0857389,0.651424 0.181194,0.958931 0.0954553,0.307934 0.225505,0.598144 0.390683,0.870309 0.165285,0.272272 0.391111,0.476422 0.677049,0.612665 0.286046,0.136029 0.638504,0.204151 1.05823,0.204151 0.406699,0 0.762468,-0.07677 1.06741,-0.230737 0.305265,-0.153967 0.559385,-0.378832 0.762895,-0.674914 0.190484,-0.307827 0.352459,-0.62441 0.486139,-0.949962 0.13336,-0.325552 0.238104,-0.671817 0.314554,-1.0388 0.012706,-0.0830696 0.0253053,-0.165712 0.0379045,-0.248782 0.012706,-0.0826425 0.0256256,-0.165712 0.0383316,-0.248675 0.0125992,-0.0708975 0.0222088,-0.147774 0.0285085,-0.230737 0.0064064,-0.0827493 0.016016,-0.165712 0.0286152,-0.248782 0.012706,-0.165712 0.0223156,-0.322349 0.0286152,-0.470443 0.00629962,-0.148095 0.00960959,-0.287113 0.00960959,-0.417163 0,-0.0356623 0,-0.0682281 0,-0.0979111 0,-0.0294694 0,-0.0619285 0,-0.0975908 -0.0129196,-0.0234901 -0.0192192,-0.0532799 -0.0192192,-0.0888354 0,-0.035342 0,-0.0710042 0,-0.10656 0,-0.0591524 -0.00298965,-0.121081 -0.00928928,-0.186533 -0.00672672,-0.0650249 -0.016016,-0.133146 -0.0286152,-0.204044 -0.0382248,-0.307934 -0.108055,-0.603696 -0.209809,-0.888033 -0.101755,-0.284017 -0.241521,-0.556289 -0.419405,-0.816709 -0.165285,-0.260527 -0.387694,-0.455708 -0.66744,-0.586079 -0.279639,-0.13005 -0.610209,-0.195395 -0.991283,-0.195395 -0.393993,0 -0.737269,0.0681214 -1.02951,0.204364 -0.292666,0.136029 -0.53408,0.340393 -0.72467,0.612665 -0.190484,0.260527 -0.355769,0.541447 -0.495748,0.843402 -0.139659,0.301955 -0.247821,0.612665 -0.32395,0.932344 -0.0256256,0.118305 -0.0478344,0.239706 -0.0668401,0.363883 -0.0188989,0.124498 -0.0412145,0.251878 -0.0668401,0.381928 -0.0125992,0.118305 -0.0286152,0.233833 -0.0475141,0.346266 -0.0190056,0.112432 -0.0286152,0.222088 -0.0286152,0.328648l0 -0.0356623z"/>
  <path class="fil0" d="M112.522 30.5043c-0.0382248,0.142115 -0.0827493,0.281241 -0.133253,0.417163 -0.0509309,0.136349 -0.108161,0.275368 -0.171691,0.41759 -0.0255188,0.0708975 -0.0541341,0.141795 -0.0857389,0.213119 -0.0319252,0.0708975 -0.0668401,0.141795 -0.105065,0.213013 -0.0253053,0.0827493 -0.0572305,0.15984 -0.095135,0.230737 -0.0382248,0.0710042 -0.0764497,0.142222 -0.114354,0.213119 -0.20351,0.402642 -0.445031,0.78425 -0.72467,1.14546 -0.279639,0.361107 -0.590883,0.707373 -0.934053,1.0388 -0.343169,0.331424 -0.711964,0.574227 -1.10606,0.728194 -0.3941,0.153967 -0.813399,0.230737 -1.25832,0.230737 -0.33025,0 -0.619499,-0.0532799 -0.867319,-0.15984 -0.248034,-0.10656 -0.454534,-0.272272 -0.619819,-0.497136 -0.165285,-0.225185 -0.301635,-0.461794 -0.409689,-0.710469 -0.108055,-0.248461 -0.187601,-0.508881 -0.238425,-0.781153 -0.012706,-0.0474073 -0.0223156,-0.0948147 -0.0286152,-0.142222 -0.00629962,-0.0473006 -0.016016,-0.0947079 -0.0286152,-0.142115 -0.0125992,-0.035342 -0.0223156,-0.0768768 -0.0286152,-0.124177 -0.00629962,-0.0474073 -0.00960959,-0.0948147 -0.00960959,-0.142222 -0.0125992,-0.0944944 -0.0190056,-0.186426 -0.0190056,-0.275048 0,-0.0888354 0,-0.174681 0,-0.257644 0,-0.165712 0.0064064,-0.3342 0.0190056,-0.506105 0.0129196,-0.171585 0.0256256,-0.346266 0.0382248,-0.52383 0.0253053,-0.177457 0.0539205,-0.358011 0.0858457,-0.541661 0.0319252,-0.18333 0.0731397,-0.369863 0.123964,-0.559385 0.139659,-0.615441 0.349576,-1.20451 0.629215,-1.76667 0.279639,-0.562482 0.629108,-1.09806 1.04851,-1.60726 0.419299,-0.508881 0.911844,-0.890809 1.47742,-1.14536 0.565685,-0.254654 1.20451,-0.381608 1.91615,-0.381608 0.165285,0 0.33057,0.0117451 0.495855,0.035342 0.165285,0.0238104 0.330463,0.0532799 0.495748,0.0888354 0.164965,0.0356623 0.32395,0.0827493 0.476529,0.142222 0.152686,0.0591524 0.304944,0.124177 0.45763,0.195075l0.209809 -3.87107c0,-0.0473006 0.00928928,-0.0888354 0.0286152,-0.124498 0.0190056,-0.0352352 0.0475141,-0.0650249 0.0858457,-0.088515 0.0379045,-0.0239172 0.079119,-0.0415348 0.123643,-0.0532799 0.0445245,-0.0120654 0.0921453,-0.0179379 0.142969,-0.0179379l0.915154 -0.035342c0.0509309,0.0234901 0.0954553,0.0412145 0.13336,0.0532799 0.0382248,0.0117451 0.0765564,0.0293627 0.114461,0.0532799 0.0382248,0.0234901 0.0668401,0.056056 0.0857389,0.097484 0.019326,0.0415348 0.0286152,0.0917182 0.0286152,0.150871l-0.743249 13.0698c-0.0129196,0.0829628 -0.0286152,0.148095 -0.0478344,0.195395 -0.0190056,0.0474073 -0.0413213,0.0830696 -0.0665198,0.10656 -0.0382248,0.0235969 -0.0795461,0.0384384 -0.124071,0.0443109 -0.0445245,0.00587253 -0.098445,0.00896896 -0.161975,0.00896896l-0.896148 0c-0.0635301,0 -0.120761,-0.00309643 -0.171585,-0.00896896 -0.0509309,-0.00587253 -0.0891557,-0.0265865 -0.114461,-0.0619285 -0.0255188,-0.0238104 -0.0445245,-0.0591524 -0.0571237,-0.10656 -0.012706,-0.0474073 -0.0190056,-0.0948147 -0.0190056,-0.142222l0.247714 -4.31514zm0.228815 -4.06646c-0.0635301,-0.0117451 -0.13037,-0.0266933 -0.2002,-0.0446312 -0.0698297,-0.0176176 -0.13667,-0.0384384 -0.2002,-0.0619285 -0.0634233,-0.0117451 -0.130263,-0.029683 -0.2002,-0.0532799 -0.0698297,-0.0238104 -0.13667,-0.0415348 -0.200093,-0.0532799 -0.0635301,-0.0238104 -0.13037,-0.0415348 -0.2002,-0.0532799 -0.0698297,-0.0117451 -0.13667,-0.0238104 -0.2002,-0.0355555 -0.0761293,0 -0.149376,-0.00288288 -0.219206,-0.00875541 -0.07015,-0.00619285 -0.13667,-0.00896896 -0.2002,-0.00896896 -0.546679,0 -1.02652,0.0975908 -1.43952,0.292986 -0.412999,0.195182 -0.765885,0.488167 -1.05812,0.879064 -0.279746,0.390577 -0.52116,0.801867 -0.72467,1.23398 -0.20319,0.432432 -0.362175,0.885257 -0.476529,1.35848 -0.0382248,0.177778 -0.0698297,0.355235 -0.0954553,0.532692 -0.0251985,0.177884 -0.0508241,0.355341 -0.0761293,0.532799 -0.0125992,0.177778 -0.0253053,0.346266 -0.0382248,0.506105 -0.0125992,0.15984 -0.0190056,0.316796 -0.0190056,0.470763 0,0.0474073 0,0.103463 0,0.168488 0,0.0653452 0,0.127274 0,0.186533 0,0.0591524 0.00330997,0.121401 0.00971637,0.186426 0.00629962,0.0653452 0.0155889,0.127274 0.0286152,0.186426 0.0251985,0.177778 0.0571237,0.346266 0.0950282,0.506105 0.0382248,0.15984 0.0954553,0.311031 0.171585,0.452825 0.0635301,0.142222 0.152686,0.248675 0.26704,0.319679 0.114461,0.0712178 0.25412,0.10656 0.419405,0.10656 0.177884,0 0.346479,-0.0266933 0.505465,-0.0799732 0.158558,-0.0532799 0.307934,-0.133146 0.447914,-0.239706 0.139659,-0.10656 0.27003,-0.221768 0.390683,-0.346266 0.120761,-0.124177 0.232125,-0.25743 0.33388,-0.399546 0.0253053,-0.0235969 0.0506105,-0.0501834 0.0761293,-0.0799732 0.0253053,-0.0293627 0.0509309,-0.0619285 0.0762361,-0.097484 0.0125992,-0.0235969 0.0255188,-0.0415348 0.0382248,-0.0532799 0.0125992,-0.0118518 0.0253053,-0.0297897 0.0382248,-0.0532799 0,-0.0118518 0.00629962,-0.0266933 0.0190056,-0.0443109 0.0125992,-0.0179379 0.0251985,-0.0325658 0.0382248,-0.0446312 0.139659,-0.200947 0.276329,-0.396449 0.409689,-0.585972 0.13368,-0.189309 0.257324,-0.378832 0.371785,-0.568034 0.0635301,-0.0948147 0.120654,-0.186533 0.171585,-0.275368 0.0508241,-0.0889421 0.101755,-0.180554 0.152579,-0.275368 0.0509309,-0.0827493 0.101755,-0.171585 0.152686,-0.266399 0.0505038,-0.0944944 0.101435,-0.18333 0.152259,-0.266293 0.152686,-0.284124 0.289356,-0.57711 0.410009,-0.879064 0.120761,-0.301635 0.225505,-0.6006 0.314661,-0.896682 0.101755,-0.307827 0.190484,-0.636155 0.26704,-0.985517 0.0761293,-0.349149 0.139659,-0.725097 0.190484,-1.12774l0 -0.035342zm10.791 4.1554c-0.0509309,0.141795 -0.101755,0.281241 -0.152365,0.417163 -0.0508241,0.136243 -0.108055,0.269496 -0.171585,0.399546 -0.0255188,0.0708975 -0.0541341,0.142222 -0.0857389,0.213119 -0.0319252,0.0708975 -0.0668401,0.136243 -0.105065,0.195395 -0.0253053,0.0710042 -0.0572305,0.141902 -0.095135,0.213119 -0.0382248,0.0708975 -0.0764497,0.141902 -0.114354,0.213119 -0.203617,0.390577 -0.438625,0.766525 -0.705665,1.12742 -0.26672,0.361107 -0.565685,0.7015 -0.895935,1.02118 -0.317864,0.331424 -0.673739,0.574227 -1.06773,0.728194 -0.3941,0.153967 -0.819805,0.230737 -1.27733,0.230737 -0.381394,0 -0.708654,-0.0591524 -0.981994,-0.177457 -0.27334,-0.118625 -0.492545,-0.307934 -0.657723,-0.568354 -0.165285,-0.260527 -0.298645,-0.532799 -0.4004,-0.816816 -0.101755,-0.284337 -0.171585,-0.580099 -0.209916,-0.888033 -0.0125992,-0.0708975 -0.0251985,-0.144891 -0.0379045,-0.221982 -0.0129196,-0.0768768 -0.0192192,-0.156743 -0.0192192,-0.239813 0,-0.0352352 0,-0.0708975 0,-0.10656 0,-0.0352352 0,-0.07677 0,-0.124177 0,-0.0355555 0,-0.0708975 0,-0.10656 0,-0.0355555 0,-0.0708975 0,-0.10656 0,-0.165712 0.00629962,-0.328541 0.0192192,-0.488381 0.012706,-0.15984 0.0253053,-0.328328 0.0379045,-0.506105 0.0256256,-0.165712 0.0542408,-0.337297 0.0858457,-0.514754 0.0319252,-0.177778 0.0668401,-0.355341 0.105065,-0.532799 0.152365,-0.60391 0.368475,-1.1838 0.648114,-1.7404 0.279746,-0.556289 0.629215,-1.08898 1.04851,-1.59818 0.419726,-0.508881 0.912164,-0.890809 1.47785,-1.14536 0.565365,-0.254654 1.20408,-0.381608 1.91615,-0.381608 0.190484,0 0.378084,0.0117451 0.562268,0.035342 0.184291,0.0238104 0.365485,0.0650249 0.543369,0.124498 0.177884,0.047087 0.349469,0.10656 0.514754,0.177457 0.165285,0.0708975 0.33057,0.148095 0.495855,0.230737 0,-0.0474073 0.00928928,-0.0917182 0.0286152,-0.133146 0.0188989,-0.0415348 0.0349149,-0.0799732 0.0475141,-0.115208 0.0253053,-0.0356623 0.0602201,-0.0622488 0.104745,-0.0799732 0.0446312,-0.0179379 0.098445,-0.0265865 0.162295,-0.0265865l0.762575 -0.0356623c0.0635301,0.0235969 0.117344,0.0443109 0.161868,0.0622488 0.0446312,0.0177244 0.0795461,0.0384384 0.104745,0.0619285 0.0256256,0.0356623 0.0479412,0.0741007 0.0668401,0.115529 0.0190056,0.0415348 0.0286152,0.0917182 0.0286152,0.150871l-0.514754 9.12751c-0.0125992,0.0829628 -0.0286152,0.148095 -0.0475141,0.195395 -0.0190056,0.0474073 -0.0412145,0.0830696 -0.0668401,0.10656 -0.0379045,0.0235969 -0.0795461,0.0384384 -0.12375,0.0443109 -0.0445245,0.00587253 -0.0987653,0.00896896 -0.162295,0.00896896l-0.915154 0c-0.0635301,0 -0.117344,-0.00309643 -0.161975,-0.00896896 -0.0445245,-0.00587253 -0.0794393,-0.0265865 -0.104745,-0.0619285 -0.0255188,-0.0238104 -0.0445245,-0.0591524 -0.0571237,-0.10656 -0.0130263,-0.0474073 -0.019326,-0.0948147 -0.019326,-0.142222l0.228815 -4.22619zm0.4004 -4.06678c-0.12706,-0.047087 -0.26373,-0.0975908 -0.409689,-0.150871 -0.146386,-0.0532799 -0.289356,-0.0975908 -0.429015,-0.133253 -0.152686,-0.0352352 -0.305265,-0.0650249 -0.45763,-0.088515 -0.152579,-0.0239172 -0.305265,-0.0356623 -0.457523,-0.0356623 -0.546679,0 -1.03292,0.100687 -1.45852,0.301741 -0.426025,0.201268 -0.785104,0.49735 -1.07745,0.887927 -0.292345,0.390577 -0.540059,0.802294 -0.743569,1.2343 -0.20319,0.432111 -0.355769,0.884937 -0.457523,1.35848 -0.0380113,0.177457 -0.0699365,0.355021 -0.095135,0.532799 -0.0256256,0.177457 -0.0509309,0.354914 -0.0765564,0.532692 -0.0125992,0.177457 -0.0251985,0.346266 -0.0379045,0.506105 -0.0129196,0.15984 -0.0192192,0.316583 -0.0192192,0.47055 0,0.0473006 0,0.103677 0,0.168702 0,0.0651317 0,0.127381 0,0.186533 0,0.0591524 0.00330997,0.121081 0.00960959,0.186426 0.00629962,0.0650249 0.016016,0.127274 0.0286152,0.186426 0.0253053,0.177564 0.0605404,0.346373 0.104745,0.506105 0.0445245,0.15984 0.105065,0.31071 0.181194,0.452825 0.0762361,0.141902 0.175001,0.248461 0.295655,0.319679 0.120761,0.0708975 0.26373,0.10656 0.429015,0.10656 0.20319,0 0.393673,-0.0325658 0.571984,-0.0979111 0.177884,-0.0650249 0.343169,-0.168488 0.495428,-0.310603 0.152686,-0.142222 0.298645,-0.289889 0.438625,-0.443857 0.139659,-0.153967 0.26704,-0.313807 0.381501,-0.479519 0.0251985,-0.0355555 0.0475141,-0.0681214 0.066413,-0.0978043 0.019326,-0.0294694 0.0413213,-0.0620353 0.0668401,-0.0975908 0.012706,-0.0235969 0.0316049,-0.0532799 0.0572305,-0.0889421 0.0253053,-0.0352352 0.0445245,-0.0708975 0.0572305,-0.10656 0.0382248,-0.0591524 0.0761293,-0.121081 0.114354,-0.186426 0.0382248,-0.0650249 0.0761293,-0.121081 0.114461,-0.168488 0.26704,-0.414387 0.521054,-0.840626 0.762468,-1.27861 0.241414,-0.437877 0.47023,-0.882054 0.686339,-1.33178 0.216216,-0.450049 0.39741,-0.908747 0.543369,-1.37652 0.146386,-0.467347 0.251131,-0.943983 0.314661,-1.42937l0 -0.0355555zm12.9265 5.77152c0.0635301,-0.213119 0.136777,-0.423463 0.219526,-0.630603 0.082429,-0.206927 0.168275,-0.41727 0.25743,-0.630389 0.0505038,-0.106453 0.098445,-0.213013 0.142969,-0.319572 0.0442041,-0.10656 0.0857389,-0.213119 0.123643,-0.319679l2.002 -4.93645c0.0255188,-0.0830696 0.0698297,-0.142222 0.13368,-0.177884 0.0634233,-0.0352352 0.139659,-0.0531731 0.228708,-0.0531731l1.90654 -0.0177244c0.0251985,0.0117451 0.0475141,0.0177244 0.0665198,0.0177244 0.0192192,0 0.0415348,0 0.0668401,0 0.0634233,0.0117451 0.120654,0.0324591 0.171585,0.0622488 0.0508241,0.0293627 0.0761293,0.0798664 0.0761293,0.150764l0 0c0,0.0239172 -0.00298965,0.0446312 -0.00928928,0.0622488 -0.0064064,0.0177244 -0.016016,0.0384384 -0.0286152,0.0622488 -0.012706,0.0118518 -0.0223156,0.0266933 -0.0286152,0.0443109 -0.00629962,0.0177244 -0.00960959,0.0325658 -0.00960959,0.0443109l-3.77508 8.61276c-0.0125992,0.0474073 -0.0253053,0.0857389 -0.0379045,0.115208 -0.0129196,0.029683 -0.0319252,0.0622488 -0.0572305,0.0978043 -0.0890489,0.213119 -0.19721,0.375735 -0.324164,0.488167 -0.12706,0.112432 -0.33687,0.168809 -0.629215,0.168809l-1.69695 0c-0.317544,0 -0.53077,-0.0622488 -0.638504,-0.186426 -0.108055,-0.124177 -0.1939,-0.304838 -0.257324,-0.541768 0,-0.0234901 -0.00341674,-0.0474073 -0.00971637,-0.0708975 -0.00629962,-0.0234901 -0.0159092,-0.0474073 -0.0286152,-0.0708975l-2.38329 -8.54154c0,0 -0.00298965,-0.00896896 -0.00928928,-0.0265865 -0.00629962,-0.0179379 -0.00971637,-0.0328862 -0.00971637,-0.0446312 -0.0125992,-0.035342 -0.0222088,-0.0708975 -0.0285085,-0.10656 -0.0064064,-0.035342 -0.00971637,-0.0708975 -0.00971637,-0.10656 0,-0.0947079 0.0286152,-0.15386 0.0858457,-0.177457 0.0572305,-0.0238104 0.13037,-0.0355555 0.219419,-0.0355555l2.32584 -0.0177244c0.0891557,0.0117451 0.171585,0.0325658 0.248034,0.0622488 0.0762361,0.0294694 0.120761,0.0917182 0.13336,0.186533l1.02961 4.19064c0.0508241,0.23693 0.101755,0.464571 0.152579,0.683563 0.0506105,0.219312 0.101435,0.435208 0.152365,0.648327 0.0382248,0.224865 0.0764497,0.446846 0.114354,0.665838 0.0382248,0.218992 0.0764497,0.44108 0.114354,0.665945l0 -0.0176176zm5.89132 2.4859l0.514861 -9.25169c0,-0.0948147 0.0349149,-0.168809 0.105065,-0.222088 0.0698297,-0.0532799 0.161975,-0.0798664 0.276329,-0.0798664l2.07802 -0.0177244c0.114461,0.0117451 0.2002,0.0443109 0.25743,0.0975908 0.0572305,0.0532799 0.0857389,0.133146 0.0857389,0.239706l-0.514754 9.23407c-0.0125992,0.13037 -0.0508241,0.222088 -0.114354,0.275368 -0.0635301,0.0532799 -0.158985,0.0798664 -0.286046,0.0798664l-2.05902 0c-0.12706,0 -0.215896,-0.029683 -0.26672,-0.0888354 -0.0509309,-0.0591524 -0.0765564,-0.141902 -0.0765564,-0.248461l0 -0.0179379zm0.438625 -11.5958c0,-0.0238104 0,-0.0532799 0,-0.0888354 0,-0.035342 0,-0.0768768 0,-0.124284 0.012706,-0.355235 0.0668401,-0.654093 0.161975,-0.896575 0.0954553,-0.242909 0.384811,-0.36431 0.86764,-0.36431l1.31555 0c0.26704,0.0117451 0.486139,0.0650249 0.657723,0.157063 0.171585,0.0944944 0.25743,0.269175 0.25743,0.526819 0,0.0710042 0,0.139126 0,0.201054 0,0.0653452 -0.00629962,0.133146 -0.0190056,0.204364 0,0.0679078 -0.00330997,0.136029 -0.00960959,0.201054 -0.00629962,0.0653452 -0.00960959,0.13037 -0.00960959,0.201374 -0.012706,0.307827 -0.12706,0.503222 -0.343276,0.585972 -0.216109,0.0829628 -0.470123,0.124498 -0.762468,0.124498l-1.2201 -0.0179379c-0.254441,0.0117451 -0.46724,-0.0384384 -0.638825,-0.150871 -0.171585,-0.112432 -0.25743,-0.292986 -0.25743,-0.541661l0 -0.0177244zm10.8486 7.99113c-0.0509309,0.177457 -0.105065,0.349042 -0.162295,0.514754 -0.0572305,0.166032 -0.12375,0.331745 -0.2002,0.497457 -0.33057,0.793219 -0.807099,1.51522 -1.42991,2.16622 -0.622809,0.651424 -1.42361,0.976975 -2.40229,0.976975 -0.902234,0 -1.53134,-0.29021 -1.88754,-0.870416 -0.355769,-0.580099 -0.558958,-1.22522 -0.609889,-1.93548 0,-0.0830696 -0.00330997,-0.168809 -0.00960959,-0.25743 -0.00629962,-0.0888354 -0.00960959,-0.180554 -0.00960959,-0.275368 0,-0.331317 0.0222088,-0.680786 0.0668401,-1.04777 0.0445245,-0.366766 0.104745,-0.733746 0.181194,-1.10083 0.292345,-1.20761 0.835714,-2.31463 1.63011,-3.32086 0.7945,-1.00602 1.89683,-1.50935 3.30784,-1.50935 0.33057,0 0.651424,0.0324591 0.962668,0.0978043 0.311564,0.0651317 0.606899,0.168488 0.886539,0.31071l0.190911 -3.42721c0.0125992,-0.10656 0.0539205,-0.180554 0.12375,-0.222088 0.0698297,-0.041428 0.162295,-0.0622488 0.27665,-0.0622488l2.15426 -0.0176176c0.114354,0.0117451 0.20351,0.0384384 0.266933,0.0798664 0.0635301,0.0415348 0.095135,0.121401 0.095135,0.239813l-0.724243 12.7677c-0.012706,0.13037 -0.0509309,0.222088 -0.114461,0.275368 -0.0634233,0.0532799 -0.158879,0.0798664 -0.285939,0.0798664l-2.15458 0c-0.114354,0 -0.2002,-0.0324591 -0.257324,-0.0975908 -0.0572305,-0.0653452 -0.0858457,-0.145212 -0.0858457,-0.239706l0.190911 -3.6226zm0.247714 -4.20868c-0.165285,-0.0474073 -0.34018,-0.0829628 -0.524364,-0.10656 -0.184291,-0.0238104 -0.365485,-0.0355555 -0.543369,-0.0355555 -0.915154,0 -1.59519,0.322776 -2.0399,0.9679 -0.444924,0.645124 -0.737163,1.3526 -0.877249,2.12201 -0.0634233,0.284017 -0.104745,0.562482 -0.123643,0.834647 -0.019326,0.272272 -0.0286152,0.526926 -0.0286152,0.763536 0,0.0474073 0,0.0975908 0,0.150871 0,0.0532799 0.00629962,0.109656 0.0190056,0.168809 0.0125992,0.224865 0.0668401,0.432005 0.161868,0.621634 0.0954553,0.189202 0.25743,0.284017 0.486246,0.284017 0.228708,0 0.422609,-0.0651317 0.581594,-0.195502 0.158985,-0.13005 0.301955,-0.272272 0.429015,-0.426132 0.0251985,-0.0235969 0.0475141,-0.0501834 0.0668401,-0.0799732 0.0188989,-0.0293627 0.0412145,-0.056056 0.066413,-0.0798664 0.59761,-0.722001 1.11535,-1.50038 1.55398,-2.33513 0.438625,-0.834647 0.696055,-1.71371 0.772184,-2.63698l0 -0.0177244zm10.8293 4.20868c-0.0379045,0.165712 -0.0858457,0.328328 -0.142969,0.488167 -0.0572305,0.159733 -0.117451,0.316796 -0.180874,0.470763 -0.33057,0.804964 -0.816816,1.53903 -1.45863,2.20188 -0.642134,0.662849 -1.45852,0.994593 -2.45013,0.994593 -0.86433,0 -1.47411,-0.281241 -1.83031,-0.843722 -0.355875,-0.562161 -0.565685,-1.18657 -0.629215,-1.87334 0,-0.106453 -0.00298965,-0.213013 -0.00928928,-0.319572 -0.00629962,-0.10656 -0.00960959,-0.213119 -0.00960959,-0.319679 0,-0.331424 0.0223156,-0.680786 0.0668401,-1.04777 0.0442041,-0.367087 0.111044,-0.740046 0.2002,-1.11877 0.279639,-1.19565 0.816388,-2.2936 1.61078,-3.29406 0.7945,-1.00036 1.89085,-1.50059 3.28883,-1.50059 0.381501,0 0.743569,0.0445245 1.08674,0.133146 0.343276,0.0889421 0.680146,0.204471 1.01061,0.346266 0,-0.0826425 0.0190056,-0.150764 0.0572305,-0.204044 0.0382248,-0.0532799 0.101755,-0.0799732 0.19059,-0.0799732l2.07802 -0.0176176c0.114354,0.0117451 0.2002,0.0532799 0.25743,0.124177 0.0571237,0.0708975 0.0857389,0.153967 0.0857389,0.248675l-0.514754 9.21614c0,0.13037 -0.0349149,0.222088 -0.104745,0.275368 -0.0698297,0.0532799 -0.168275,0.0798664 -0.295335,0.0798664l-2.15447 0c-0.12706,0 -0.216216,-0.029683 -0.26704,-0.0888354 -0.0509309,-0.0591524 -0.0762361,-0.141902 -0.0762361,-0.248461l0.19059 -3.6226zm0.476849 -4.12006c-0.20351,-0.0827493 -0.413319,-0.141902 -0.629108,-0.177457 -0.216216,-0.0356623 -0.438625,-0.0532799 -0.66744,-0.0532799 -0.940779,0 -1.63011,0.328648 -2.06873,0.985517 -0.438304,0.656976 -0.72766,1.38239 -0.867319,2.17529 -0.0638504,0.296082 -0.105065,0.589068 -0.124071,0.878958 -0.0188989,0.290317 -0.0285085,0.559385 -0.0285085,0.808167 0,0.0117451 0,0.0265865 0,0.0443109 0,0.0179379 0,0.0327794 0,0.0445245 0.0125992,0.248461 0.0634233,0.473646 0.152579,0.674594 0.0888354,0.201374 0.26042,0.302062 0.514754,0.302062 0.19059,0 0.39079,-0.0768768 0.6006,-0.230737 0.209489,-0.153967 0.422288,-0.355341 0.638504,-0.604016 0.241414,-0.284017 0.479839,-0.609569 0.714954,-0.976548 0.235115,-0.367087 0.448234,-0.745918 0.638825,-1.13649 0.304944,-0.556502 0.559278,-1.0893 0.762468,-1.59818 0.20351,-0.509202 0.32427,-0.882161 0.362495,-1.11877l0 -0.0179379z"/>
  <path class="fil1" d="M4.5463 0l14.3661 0 1.92993 0 14.1519 0 4.76038 0 -0.111258 22.1677 -0.103036 0.106667 0 16.2299c0,2.32905 -2.04567,4.23431 -4.54609,4.23431l-15.2242 0 -15.2238 0 -4.5463 0 0.019326 -3.84704c-0.0124925,-0.127594 -0.019326,-0.25679 -0.019326,-0.387267l0 -34.2698c0,-2.32905 2.04588,-4.23441 4.5463,-4.23441z"/>
  <path class="fil2" style="mask:url(#id0)" d="M4.5463 0l14.3661 0 1.92993 0 14.1519 0 4.76038 0 -0.111258 22.1676 -0.103036 0.106667 0 16.23c0,2.32905 -2.04567,4.23431 -4.54609,4.23431l-15.2242 0 -15.2238 0 -4.5463 0 0.0194327 -3.84704c-0.0125992,-0.127594 -0.0194327,-0.25679 -0.0194327,-0.387267l0 -34.2698c0,-2.32905 2.04588,-4.23441 4.5463,-4.23441z"/>
  <path class="fil3" d="M51.036 15.9567l2.25527 -0.196356c0.133146,0.672458 0.408942,1.165 0.825464,1.47988 0.414387,0.312205 0.972705,0.470977 1.67837,0.470977 0.745491,0 1.30883,-0.139659 1.68595,-0.421541 0.378938,-0.279212 0.569315,-0.605938 0.569315,-0.979965 0,-0.241628 -0.0805071,-0.445245 -0.240881,-0.613199 -0.157597,-0.170517 -0.435635,-0.31733 -0.833152,-0.440119 -0.269923,-0.0854186 -0.890062,-0.232232 -1.85508,-0.445138 -1.24209,-0.272485 -2.11304,-0.608501 -2.61274,-1.00623 -0.705558,-0.558638 -1.05866,-1.24028 -1.05866,-2.04556 0,-0.518384 0.165819,-1.00121 0.497563,-1.45361 0.330677,-0.449836 0.809555,-0.793005 1.43151,-1.02951 0.625585,-0.234474 1.37663,-0.352886 2.25847,-0.352886 1.44293,0 2.52519,0.279212 3.25434,0.838277 0.726912,0.561094 1.10895,1.30669 1.14621,2.24181l-2.31655 0.0897963c-0.0990856,-0.523082 -0.312632,-0.899672 -0.638825,-1.12689 -0.325765,-0.229349 -0.814573,-0.343169 -1.46653,-0.343169 -0.673739,0 -1.20301,0.120547 -1.58195,0.366873 -0.246219,0.156103 -0.368902,0.366873 -0.368902,0.629642 0,0.241628 0.114888,0.4477 0.344878,0.618217 0.290744,0.217497 1.00217,0.444711 2.12981,0.679185 1.12721,0.23693 1.96089,0.480693 2.50063,0.73161 0.539739,0.253053 0.962241,0.596649 1.26932,1.03463 0.304411,0.437984 0.457096,0.977509 0.457096,1.619 0,0.582769 -0.181728,1.12945 -0.54796,1.63598 -0.366126,0.509095 -0.88184,0.88782 -1.55013,1.13404 -0.667333,0.248461 -1.50155,0.371571 -2.49828,0.371571 -1.45073,0 -2.56469,-0.295762 -3.34254,-0.889955 -0.777309,-0.594514 -1.24252,-1.46077 -1.392,-2.59737zm21.6299 3.30741l-2.52241 0 -1.00175 -2.31036 -4.58826 0 -0.945477 2.31036 -2.45835 0 4.4706 -10.1676 2.45013 0 4.59552 10.1676zm-4.26698 -4.02204l-1.58195 -3.77379 -1.54971 3.77379 3.13166 0zm-3.37478 -6.70675l-1.00217 0c-0.00544544,-0.10656 -0.00822154,-0.189523 -0.00822154,-0.250917 0,-0.485391 0.133573,-0.859418 0.398478,-1.11962 0.267147,-0.26074 0.608821,-0.391004 1.02588,-0.391004 0.182155,0 0.352992,0.0168702 0.51059,0.0519986 0.154501,0.03342 0.44076,0.132933 0.85504,0.298325 0.416629,0.163363 0.740152,0.246326 0.975054,0.246326 0.168061,0 0.30708,-0.0474073 0.419299,-0.139659 0.112219,-0.0922521 0.184504,-0.248355 0.213974,-0.463823l1.01819 0c-0.00544544,0.622488 -0.136349,1.06976 -0.395702,1.33766 -0.256256,0.267467 -0.590243,0.402428 -0.996408,0.402428 -0.178952,0 -0.352992,-0.016977 -0.526072,-0.0499699 -0.118091,-0.0258391 -0.419833,-0.120547 -0.898177,-0.28391 -0.480693,-0.161228 -0.831016,-0.241628 -1.05001,-0.241628 -0.165819,0 -0.296616,0.0448448 -0.390256,0.134961 -0.0963095,0.0901166 -0.144464,0.246326 -0.149483,0.468841zm8.40049 5.70767c0,-1.03677 0.17404,-1.90601 0.524257,-2.60879 0.261701,-0.516249 0.617043,-0.982634 1.06816,-1.39435 0.452078,-0.409582 0.946332,-0.715167 1.4834,-0.913979 0.716449,-0.269603 1.53924,-0.402428 2.47426,-0.402428 1.6914,0 3.04347,0.464143 4.05888,1.39425 1.01541,0.927967 1.52333,2.22078 1.52333,3.87576 0,1.64271 -0.505678,2.92569 -1.51287,3.85366 -1.0073,0.925938 -2.35382,1.38965 -4.0371,1.38965 -1.70784,0 -3.06493,-0.461581 -4.07212,-1.38239 -1.00773,-0.923375 -1.5102,-2.19451 -1.5102,-3.81138zm2.3866 -0.0685484c0,1.15048 0.301635,2.02389 0.899992,2.61808 0.601561,0.594514 1.36339,0.890276 2.28751,0.890276 0.92188,0 1.6805,-0.293627 2.27395,-0.885257 0.590563,-0.589495 0.887286,-1.47262 0.887286,-2.6515 0,-1.165 -0.289035,-2.03371 -0.862835,-2.60879 -0.57743,-0.572945 -1.34428,-0.859418 -2.2984,-0.859418 -0.956795,0 -1.72599,0.291171 -2.31111,0.87127 -0.582982,0.579779 -0.876395,1.45361 -0.876395,2.62534zm14.9772 5.08967l0 -10.1676 3.46789 0 2.08122 6.93642 2.05763 -6.93642 3.47654 0 0 10.1676 -2.15127 0 0 -8.00405 -2.27886 8.00405 -2.23113 0 -2.27171 -8.00405 0 8.00405 -2.15031 0zm23.7353 0l-2.52241 0 -1.00217 -2.31036 -4.58783 0 -0.945904 2.31036 -2.45835 0 4.4706 -10.1676 2.45013 0 4.59595 10.1676zm-4.26698 -4.02204l-1.58195 -3.77379 -1.55013 3.77379 3.13209 0zm5.50139 4.02204l0 -10.1676 4.87943 0c1.22629,0 2.11582,0.0921453 2.67189,0.274621 0.556075,0.181942 1.00175,0.506532 1.33573,0.972811 0.334414,0.468841 0.499699,1.00121 0.499699,1.60245 0,0.762575 -0.25348,1.39478 -0.758624,1.8916 -0.505251,0.495108 -1.26398,0.809875 -2.27117,0.937683 0.502475,0.260313 0.916328,0.54465 1.24252,0.8544 0.325765,0.310176 0.764176,0.859418 1.31705,1.65029l1.403 1.98374 -2.77087 0 -1.67517 -2.21352c-0.596008,-0.790443 -1.00217,-1.28769 -1.22117,-1.49376 -0.219526,-0.206072 -0.451651,-0.345732 -0.697443,-0.42357 -0.246219,-0.0757023 -0.633272,-0.11382 -1.1681,-0.11382l-0.467453 0 0 4.24466 -2.31933 0zm2.31933 -5.86879l1.71286 0c1.11119,0 1.80639,-0.0401468 2.08443,-0.12311 0.274834,-0.0825357 0.491584,-0.227214 0.649182,-0.430723 0.154928,-0.203617 0.235328,-0.457096 0.235328,-0.762148 0,-0.343596 -0.104424,-0.61779 -0.309856,-0.828561 -0.206286,-0.21077 -0.497457,-0.343596 -0.874046,-0.400293 -0.186746,-0.0211411 -0.751043,-0.0329929 -1.6915,-0.0329929l-1.80639 0 0 2.57783zm16.596 2.13066l2.2448 0.629642c-0.344771,1.11034 -0.916755,1.9343 -1.7182,2.47426 -0.798664,0.53739 -1.81728,0.806886 -3.04902,0.806886 -1.52291,0 -2.77589,-0.461581 -3.75682,-1.38239 -0.980819,-0.923375 -1.47198,-2.18522 -1.47198,-3.78308 0,-1.69268 0.49436,-3.00652 1.4802,-3.94388 0.985838,-0.93512 2.28207,-1.40396 3.89039,-1.40396 1.40289,0 2.54377,0.366873 3.42016,1.10318 0.52383,0.433286 0.914086,1.05823 1.17579,1.87291l-2.29531 0.484857c-0.133573,-0.527674 -0.416523,-0.94441 -0.849488,-1.24999 -0.430296,-0.305051 -0.954126,-0.456563 -1.56839,-0.456563 -0.850022,0 -1.54191,0.269923 -2.07129,0.812011 -0.528741,0.539525 -0.793646,1.41549 -0.793646,2.6278 0,1.28523 0.259352,2.20134 0.783289,2.74589 0.520626,0.547213 1.19938,0.819271 2.0335,0.819271 0.616936,0 1.14632,-0.173079 1.58964,-0.520947 0.443429,-0.345625 0.761507,-0.892411 0.956368,-1.63587zm3.76504 -1.28299c0,-1.03677 0.173934,-1.90601 0.52383,-2.60879 0.261701,-0.516249 0.617363,-0.982634 1.06859,-1.39435 0.451971,-0.409582 0.946332,-0.715167 1.48287,-0.913979 0.716449,-0.269603 1.53924,-0.402428 2.47468,-0.402428 1.69108,0 3.04357,0.464143 4.05899,1.39425 1.01541,0.927967 1.52291,2.22078 1.52291,3.87576 0,1.64271 -0.505251,2.92569 -1.51244,3.85366 -1.0073,0.925938 -2.35392,1.38965 -4.03763,1.38965 -1.7073,0 -3.06482,-0.461581 -4.07212,-1.38239 -1.00719,-0.923375 -1.50967,-2.19451 -1.50967,-3.81138zm2.38606 -0.0685484c0,1.15048 0.302168,2.02389 0.900526,2.61808 0.601027,0.594514 1.36296,0.890276 2.28708,0.890276 0.921774,0 1.68093,-0.293627 2.27427,-0.885257 0.59067,-0.589495 0.887286,-1.47262 0.887286,-2.6515 0,-1.165 -0.288928,-2.03371 -0.863155,-2.60879 -0.57743,-0.572945 -1.34396,-0.859418 -2.2984,-0.859418 -0.956368,0 -1.72599,0.291171 -2.31121,0.87127 -0.582448,0.579779 -0.876395,1.45361 -0.876395,2.62534zm9.96697 1.78226l2.25527 -0.196356c0.133573,0.672458 0.408942,1.165 0.825571,1.47988 0.41428,0.312205 0.972705,0.470977 1.67826,0.470977 0.745491,0 1.30936,-0.139659 1.68595,-0.421541 0.379365,-0.279212 0.569315,-0.605938 0.569315,-0.979965 0,-0.241628 -0.0799732,-0.445245 -0.240774,-0.613199 -0.157277,-0.170517 -0.435315,-0.31733 -0.833259,-0.440119 -0.269923,-0.0854186 -0.890062,-0.232232 -1.85455,-0.445138 -1.24263,-0.272485 -2.11358,-0.608501 -2.61328,-1.00623 -0.705131,-0.558638 -1.05812,-1.24028 -1.05812,-2.04556 0,-0.518384 0.165392,-1.00121 0.49703,-1.45361 0.331211,-0.449836 0.809555,-0.793005 1.43204,-1.02951 0.625158,-0.234474 1.37652,-0.352886 2.25793,-0.352886 1.44293,0 2.52519,0.279212 3.25477,0.838277 0.726912,0.561094 1.10905,1.30669 1.14632,2.24181l-2.31709 0.0897963c-0.0989788,-0.523082 -0.312525,-0.899672 -0.638718,-1.12689 -0.325765,-0.229349 -0.81468,-0.343169 -1.46664,-0.343169 -0.673312,0 -1.20259,0.120547 -1.58195,0.366873 -0.245792,0.156103 -0.368475,0.366873 -0.368475,0.629642 0,0.241628 0.114995,0.4477 0.344878,0.618217 0.290744,0.217497 1.00175,0.444711 2.12938,0.679185 1.12721,0.23693 1.96132,0.480693 2.50106,0.73161 0.539739,0.253053 0.961814,0.596649 1.269,1.03463 0.304838,0.437984 0.45699,0.977509 0.45699,1.619 0,0.582769 -0.181728,1.12945 -0.547854,1.63598 -0.365805,0.509095 -0.88184,0.88782 -1.54971,1.13404 -0.667867,0.248461 -1.50155,0.371571 -2.49839,0.371571 -1.45062,0 -2.56512,-0.295762 -3.34243,-0.889955 -0.777843,-0.594514 -1.24305,-1.46077 -1.39254,-2.59737z"/>
  <path class="fil4" d="M1.64634 40.2015l0 -2.79895 0.638291 0 0 1.10126 1.24978 0 0 -1.10126 0.637864 0 0 2.79895 -0.637864 0 0 -1.22384 -1.24978 0 0 1.22384 -0.638291 0zm3.05617 -1.38229c0,-0.285405 0.0477277,-0.524577 0.144144,-0.71805 0.072072,-0.142115 0.169876,-0.270457 0.29416,-0.38385 0.124391,-0.112753 0.260527,-0.19689 0.408194,-0.251665 0.19721,-0.0742074 0.423783,-0.110724 0.681214,-0.110724 0.465425,0 0.837743,0.127701 1.11717,0.383743 0.279426,0.255615 0.419299,0.611384 0.419299,1.06699 0,0.452185 -0.138805,0.805391 -0.416202,1.0609 -0.277504,0.254654 -0.648221,0.382462 -1.11151,0.382462 -0.470016,0 -0.843616,-0.12706 -1.12091,-0.38054 -0.277397,-0.254227 -0.415562,-0.60423 -0.415562,-1.04926zm0.656762 -0.0187921c0,0.31669 0.0830696,0.557143 0.247928,0.720613 0.165499,0.163683 0.375095,0.245151 0.629642,0.245151 0.253693,0 0.462542,-0.0809341 0.625905,-0.243763 0.162616,-0.162295 0.24419,-0.405311 0.24419,-0.729902 0,-0.32064 -0.0794393,-0.559812 -0.237571,-0.718157 -0.158879,-0.157704 -0.369863,-0.236503 -0.632525,-0.236503 -0.26341,0 -0.475248,0.08008 -0.636262,0.239813 -0.16048,0.159626 -0.241308,0.400079 -0.241308,0.722748zm2.74354 0.490623l0.62078 -0.0540273c0.0368368,0.185038 0.112646,0.32064 0.22732,0.407233 0.113927,0.0860593 0.267787,0.12973 0.461901,0.12973 0.205218,0 0.36036,-0.0384384 0.464143,-0.116063 0.104531,-0.0768768 0.156743,-0.16678 0.156743,-0.269709 0,-0.0665198 -0.0221021,-0.122576 -0.0661994,-0.168809 -0.04335,-0.0469802 -0.1198,-0.0872338 -0.229563,-0.121294 -0.0743142,-0.0232766 -0.244938,-0.0638504 -0.510483,-0.122362 -0.341995,-0.0749548 -0.581594,-0.167527 -0.719332,-0.27697 -0.194114,-0.15386 -0.291171,-0.341568 -0.291171,-0.563122 0,-0.142649 0.0454854,-0.275582 0.136883,-0.400079 0.0910776,-0.123857 0.222836,-0.218458 0.3941,-0.283483 0.172119,-0.0645978 0.378832,-0.0971637 0.621527,-0.0971637 0.39709,0 0.695094,0.0768768 0.896041,0.230737 0.19988,0.154394 0.305051,0.359719 0.315408,0.61715l-0.637864 0.0246646c-0.0271204,-0.14393 -0.0859525,-0.247607 -0.175642,-0.31007 -0.0896896,-0.0632098 -0.224331,-0.0944944 -0.403923,-0.0944944 -0.185358,0 -0.330784,0.0332065 -0.435315,0.100901 -0.0675875,0.0431364 -0.101541,0.101008 -0.101541,0.173507 0,0.0663062 0.0317117,0.12311 0.0949214,0.17009 0.08008,0.0598998 0.275795,0.122362 0.586185,0.186853 0.31039,0.0652385 0.539846,0.132399 0.688581,0.201481 0.148522,0.0696162 0.264691,0.164217 0.349255,0.284764 0.083817,0.120547 0.125672,0.269175 0.125672,0.445672 0,0.160373 -0.0498631,0.310817 -0.15055,0.45037 -0.100901,0.13998 -0.242909,0.244297 -0.426666,0.312098 -0.18397,0.0684417 -0.413426,0.102289 -0.687833,0.102289 -0.399332,0 -0.706092,-0.0813612 -0.920065,-0.245045 -0.21408,-0.16347 -0.342102,-0.402001 -0.383316,-0.714847zm3.1055 0.910456l0 -2.79895 1.0231 0c0.387801,0 0.64064,0.0143076 0.758517,0.042389 0.180767,0.0416416 0.333026,0.132826 0.455068,0.27366 0.122149,0.140727 0.183116,0.322562 0.183116,0.544864 0,0.172012 -0.0351284,0.31669 -0.105706,0.433393 -0.0707907,0.117237 -0.159626,0.209062 -0.268428,0.276222 -0.108268,0.0665198 -0.218458,0.110724 -0.330357,0.132292 -0.152259,0.0268001 -0.372959,0.0403603 -0.661888,0.0403603l-0.415668 0 0 1.05577 -0.637757 0zm0.637757 -2.3252l0 0.793753 0.348722 0c0.251451,0 0.420046,-0.0143076 0.504397,-0.0436703 0.0846712,-0.0293627 0.150871,-0.0749548 0.199452,-0.137417 0.0478344,-0.0626759 0.072072,-0.135068 0.072072,-0.217711 0,-0.101755 -0.0338471,-0.185679 -0.101541,-0.252305 -0.0669468,-0.0657723 -0.153006,-0.107414 -0.255936,-0.123857 -0.0764497,-0.0129196 -0.229563,-0.0187921 -0.459018,-0.0187921l-0.308148 0zm2.28612 2.3252l0 -2.79895 0.63765 0 0 2.79895 -0.63765 0zm1.95641 0l0 -2.3252 -0.937149 0 0 -0.473753 2.51045 0 0 0.473753 -0.9348 0 0 2.3252 -0.638504 0zm4.50647 0l-0.694026 0 -0.276116 -0.636048 -1.26281 0 -0.260313 0.636048 -0.676836 0 1.23067 -2.79895 0.67438 0 1.26505 2.79895zm-1.17451 -1.10735l-0.435421 -1.03858 -0.426666 1.03858 0.862087 0zm1.52974 1.10735l0 -2.77621 0.637864 0 0 2.30438 1.5858 0 0 0.471831 -2.22366 0z"/>
  <path class="fil5" d="M3.14736 16.0535c2.68674,-0.672458 5.86153,-1.15379 9.18496,-1.45575 1.52333,-0.138271 3.07785,-0.239172 4.63108,-0.303236 12.294,-0.508561 24.5044,1.26964 20.4596,4.76604 -5.49092,4.54459 -31.1356,2.48034 -30.0885,-0.476956 1.99378,-3.3215 21.7568,-1.98716 25.0114,-1.60704 -9.03943,-0.372852 -20.0479,-0.537603 -21.6824,1.72631 -1.79069,2.04535 20.639,2.63175 24.9037,-0.833365 0.894119,-1.26035 -5.58189,-3.23886 -18.6108,-2.88608 -1.45233,0.0392926 -2.98613,0.107627 -4.60022,0.209062 -2.82554,0.177778 -5.89719,0.457203 -9.20877,0.86102z"/>
  <polygon class="fil6" points="30.1451,1.89811 26.3053,1.89811 26.315,39.825 30.1547,39.7897 "/>
  <polygon class="fil7" style="mask:url(#id2)" points="30.1451,1.89811 26.3053,1.89811 26.315,39.825 30.1548,39.7897 "/>
  <polygon class="fil8" points="24.0522,4.58388 26.424,1.89886 26.3835,39.8906 24.0522,37.6739 "/>
  <polygon class="fil9" style="mask:url(#id4)" points="24.0522,4.58378 26.424,1.89886 26.3835,39.8906 24.0522,37.6739 "/>
  <polygon class="fil10" points="12.3456,5.4543 15.3808,6.45007 16.9734,3.68176 13.9153,3.68475 "/>
  <polygon class="fil10" points="12.3469,7.32849 15.0503,8.02337 16.9771,5.54249 13.8753,5.54249 "/>
  <polygon class="fil10" points="12.3409,9.4788 15.2077,9.94935 17.0033,7.68938 13.9078,7.69002 "/>
  <polygon class="fil10" points="12.3366,11.7773 14.8586,11.772 17.0034,10.021 13.9178,10.0277 "/>
  <path class="fil8" d="M12.3142 13.0008l1.6899 -1.64313 0.00064064 23.2499 -1.69054 -1.35655 0 -20.2502zm1.6063 -10.1837l-1.57469 2.05015 -0.00202869 0.595795 1.57523 -1.7703 0.00149483 -0.875648zm0 1.32057l-1.57469 2.05026 -0.00202869 1.13938 1.57288 -1.74489 0.00384384 -1.44475zm0 2.14903l-1.57469 2.05026 -0.00202869 1.13948 1.57288 -1.74489 0.00384384 -1.44486zm0 2.30449l-1.57469 2.05015 -0.00202869 1.13948 1.57288 -1.74489 0.00384384 -1.44475z"/>
  <path class="fil9" style="mask:url(#id6)" d="M12.3143 13.0008l1.68979 -1.64313 0.00064064 23.2499 -1.69043 -1.35655 0 -20.2502zm1.60608 -10.1837l-1.57459 2.05015 -0.00202869 0.595795 1.57523 -1.7703 0.00138805 -0.875648zm0 1.32057l-1.57459 2.05026 -0.00202869 1.13938 1.57288 -1.745 0.00373706 -1.44464zm0 2.14903l-1.57459 2.05026 -0.00202869 1.13948 1.57288 -1.74489 0.00373706 -1.44486zm0 2.30449l-1.57459 2.05015 -0.00202869 1.13948 1.57288 -1.74489 0.00373706 -1.44475z"/>
  <path class="fil6" d="M13.9139 2.8406l3.06172 0 0 0.85173 -3.06172 0 0 -0.85173zm3.02243 8.53524l-2.94427 0 -0.0476209 23.1263 2.94427 0 0.0476209 -23.1263zm-3.01731 -2.75358l3.06012 0 0 1.41432 -3.06012 0 0 -1.41432zm0 -2.34987l3.06012 0 0 1.41432 -3.06012 0 0 -1.41432zm-0.00576576 -2.13205l3.06589 0 0 1.41432 -3.06589 0 0 -1.41432z"/>
  <path class="fil7" style="mask:url(#id8)" d="M13.9139 2.8406l3.06172 0 0 0.851837 -3.06172 0 0 -0.851837zm3.02243 8.53524l-2.94438 0 -0.0475141 23.1263 2.94427 0 0.0476209 -23.1263zm-3.01731 -2.75358l3.06012 0 0 1.41432 -3.06012 0 0 -1.41432zm0 -2.34987l3.06012 0 0 1.41432 -3.06012 0 0 -1.41432zm-0.00576576 -2.13216l3.06589 0 0 1.41443 -3.06589 0 0 -1.41443z"/>
  <path class="fil5" d="M23.0151 20.3231c2.46806,-0.0312846 5.16697,-0.299179 7.73039,-0.7614l0.0178311 1.67175c-2.73777,0.380006 -5.3487,0.524684 -7.8016,0.463503l0.0533866 -1.37385z"/>
  <path class="fil5" d="M12.0122 19.7118c1.72919,0.315301 3.00396,0.461367 5.13259,0.577003l1.11546 1.23302c-2.36364,-0.0899031 -4.68948,-0.372212 -6.96995,-0.886218l0.721894 -0.923802z"/>
  <path class="fil5" d="M18.9914 15.3165c0.264477,0 0.480266,0.189843 0.480266,0.422609 0,0.232766 -0.215789,0.422609 -0.480266,0.422609 -0.264584,0 -0.480266,-0.189843 -0.480266,-0.422609 0,-0.232766 0.215682,-0.422609 0.480266,-0.422609zm1.50241 0c0.264371,0 0.480159,0.189843 0.480159,0.422609 0,0.232766 -0.215789,0.422609 -0.480159,0.422609 -0.264584,0 -0.480373,-0.189843 -0.480373,-0.422609 0,-0.232766 0.215789,-0.422609 0.480373,-0.422609zm1.47764 0c0.264477,0 0.480266,0.189843 0.480266,0.422609 0,0.232766 -0.215789,0.422609 -0.480266,0.422609 -0.264584,0 -0.480266,-0.189843 -0.480266,-0.422609 0,-0.232766 0.215682,-0.422609 0.480266,-0.422609z"/>
 </g>
</svg>
