<?xml version="1.0" encoding="UTF-8"?>
<!DOCTYPE svg PUBLIC "-//W3C//DTD SVG 1.1//EN" "http://www.w3.org/Graphics/SVG/1.1/DTD/svg11.dtd">
<!-- Creator: CorelDRAW -->
<svg xmlns="http://www.w3.org/2000/svg" xml:space="preserve" width="158.089mm" height="155.065mm" style="shape-rendering:geometricPrecision; text-rendering:geometricPrecision; image-rendering:optimizeQuality; fill-rule:evenodd; clip-rule:evenodd"
viewBox="0 0 158.091 155.067"
 xmlns:xlink="http://www.w3.org/1999/xlink">
 <defs>
  <style type="text/css">
   <![CDATA[
    .fil5 {fill:#CCCCCC}
    .fil9 {fill:#333333}
    .fil10 {fill:#4C4C4C}
    .fil8 {fill:#7F7F7F}
    .fil7 {fill:#B2B2B2}
    .fil6 {fill:#E5E5E5}
    .fil2 {fill:#960E10}
    .fil1 {fill:#C31013}
    .fil3 {fill:black;fill-rule:nonzero}
    .fil4 {fill:white;fill-rule:nonzero}
    .fil0 {fill:#BA1F00;fill-rule:nonzero}
   ]]>
  </style>
    <mask id="id0">
  <linearGradient id="id1" gradientUnits="userSpaceOnUse" x1="79.4022" y1="84.6709" x2="77.8749" y2="27.326">
   <stop offset="0" style="stop-opacity:1; stop-color:white"/>
   <stop offset="1" style="stop-opacity:0; stop-color:white"/>
  </linearGradient>
     <rect style="fill:url(#id1)" x="26.4498" y="-0.100001" width="104.377" height="112.197"/>
    </mask>
    <mask id="id2">
  <linearGradient id="id3" gradientUnits="userSpaceOnUse" x1="98.9885" y1="41.7745" x2="102.065" y2="67.5614">
   <stop offset="0" style="stop-opacity:1; stop-color:white"/>
   <stop offset="1" style="stop-opacity:0; stop-color:white"/>
  </linearGradient>
     <rect style="fill:url(#id3)" x="95.4448" y="4.93594" width="10.1637" height="99.464"/>
    </mask>
    <mask id="id4">
  <linearGradient id="id5" gradientUnits="userSpaceOnUse" x1="86.0463" y1="46.5084" x2="99.3266" y2="63.0013">
   <stop offset="0" style="stop-opacity:1; stop-color:white"/>
   <stop offset="1" style="stop-opacity:0; stop-color:white"/>
  </linearGradient>
     <rect style="fill:url(#id5)" x="89.5406" y="4.93794" width="6.29165" height="99.6338"/>
    </mask>
    <mask id="id6">
  <linearGradient id="id7" gradientUnits="userSpaceOnUse" x1="53.8198" y1="40.0768" x2="68.2486" y2="57.9952">
   <stop offset="0" style="stop-opacity:1; stop-color:white"/>
   <stop offset="1" style="stop-opacity:0; stop-color:white"/>
  </linearGradient>
     <rect style="fill:url(#id7)" x="58.7812" y="7.34436" width="4.50604" height="83.3832"/>
    </mask>
    <mask id="id8">
  <linearGradient id="id9" gradientUnits="userSpaceOnUse" x1="65.6273" y1="34.8271" x2="68.4262" y2="63.0299">
   <stop offset="0" style="stop-opacity:1; stop-color:white"/>
   <stop offset="1" style="stop-opacity:0; stop-color:white"/>
  </linearGradient>
     <rect style="fill:url(#id9)" x="62.9715" y="7.40566" width="8.11047" height="83.0456"/>
    </mask>
 </defs>
 <g id="Camada_x0020_1">
  <metadata id="CorelCorpID_0Corel-Layer"/>
  <g id="_151406480">
   <path id="_151404128" class="fil0" d="M2.98652 141.045l-0.728406 13.1845c-0.0161001,0.105701 -0.0365003,0.188602 -0.0606005,0.248902 -0.0241002,0.0604005 -0.0606005,0.105701 -0.109301,0.135701 -0.0487004,0.0300002 -0.105001,0.0489004 -0.169801,0.0564005 -0.0648005,0.00750006 -0.137601,0.0114001 -0.218502,0.0114001l-1.21421 0c-0.0809007,0 -0.153701,-0.00390003 -0.218502,-0.0114001 -0.0648005,-0.00750006 -0.113501,-0.0339003 -0.145701,-0.0789006 -0.0487004,-0.0304002 -0.0809007,-0.0753006 -0.0970008,-0.135701 -0.0165001,-0.0603005 -0.0245002,-0.120701 -0.0245002,-0.181001l0.777106 -14.2247c0,-0.0604005 0.0161001,-0.117201 0.0487004,-0.169601 0.0322003,-0.0529004 0.0728006,-0.0943008 0.121101,-0.124701 0.0487004,-0.0300002 0.105501,-0.0564005 0.170301,-0.0789006 0.0648005,-0.0229002 0.137601,-0.0339003 0.218502,-0.0339003l4.22483 -0.0454004c0.711906,0.0300002 1.37981,0.128201 2.00312,0.293902 0.623005,0.166101 1.20191,0.422103 1.73601,0.769206 0.534004,0.331303 0.934608,0.764806 1.20181,1.30011 0.266802,0.535204 0.400703,1.17231 0.400703,1.91112 0,0.738806 -0.137701,1.42081 -0.412903,2.04642 -0.275302,0.626005 -0.695806,1.18731 -1.26251,1.68511 -0.550505,0.497404 -1.16551,0.870507 -1.84522,1.11941 -0.680106,0.248502 -1.41661,0.373203 -2.20982,0.373203l-1.16541 -0.0454004c0,0.0150001 -0.00390003,0.0225002 -0.0119001,0.0225002 -0.00850007,0 -0.0203002,0 -0.0364003,0 -0.0165001,0 -0.0284002,0 -0.0364003,0 -0.00850007,0 -0.0123001,0 -0.0123001,0 -0.0648005,0 -0.117301,-0.0111001 -0.158001,-0.0339003 -0.0402003,-0.0225002 -0.0766006,-0.0490004 -0.109201,-0.0789006 -0.0322003,-0.0454004 -0.0568005,-0.0982008 -0.0729006,-0.158601 -0.0161001,-0.0600005 -0.0241002,-0.127801 -0.0241002,-0.203502 0,-0.0150001 0,-0.0340003 0,-0.0564005 0,-0.0225002 0,-0.0415003 0,-0.0564005 0,-0.0304002 0,-0.0568005 0,-0.0793007 0,-0.0225002 0,-0.0414003 0,-0.0564005 0,-0.0150001 0,-0.0265002 0,-0.0340003 0,-0.00750006 0,-0.0189002 0,-0.0339003 0,-0.0150001 0,-0.0304002 0,-0.0453004 0,-0.0150001 0,-0.0300002 0,-0.0454004 0,-0.0753006 0.00800007,-0.154201 0.0241002,-0.237502 0.0161001,-0.0828007 0.0407003,-0.154201 0.0729006,-0.214502 0.0326003,-0.0754006 0.0889007,-0.132201 0.170201,-0.169701 0.0809007,-0.0378003 0.177901,-0.0568005 0.291402,-0.0568005 0.614905,0 1.18151,-0.0524004 1.69951,-0.158101 0.517904,-0.105301 0.987108,-0.256402 1.40811,-0.452504 0.420903,-0.211002 0.748706,-0.523804 0.983408,-0.938408 0.234602,-0.414503 0.384503,-0.945808 0.449304,-1.59431 0,-0.512404 -0.0729006,-0.968808 -0.218502,-1.36801 -0.145701,-0.399503 -0.364303,-0.742706 -0.655605,-1.02911 -0.291402,-0.301702 -0.647505,-0.523804 -1.06851,-0.667005 -0.421003,-0.143601 -0.914308,-0.215002 -1.48101,-0.215002l-2.23392 -0.0453004zm18.2589 7.84756c-0.0648005,0.180701 -0.129601,0.358203 -0.194002,0.531304 -0.0648005,0.173601 -0.137601,0.343203 -0.218502,0.508904 -0.0326003,0.0903007 -0.0691006,0.181001 -0.109301,0.271402 -0.0407003,0.0903007 -0.0851007,0.173501 -0.133801,0.248902 -0.0322003,0.0903007 -0.0729006,0.180601 -0.121101,0.271302 -0.0487004,0.0904007 -0.0974008,0.180701 -0.145701,0.271402 -0.259202,0.497404 -0.558605,0.976308 -0.898707,1.43581 -0.339603,0.459904 -0.720406,0.893407 -1.14091,1.30051 -0.404903,0.422103 -0.858007,0.731306 -1.35981,0.927408 -0.501904,0.196002 -1.04401,0.293802 -1.62671,0.293802 -0.485704,0 -0.902507,-0.0753006 -1.25061,-0.226002 -0.348103,-0.151101 -0.627205,-0.392103 -0.837707,-0.723806 -0.210402,-0.331703 -0.380303,-0.678506 -0.509904,-1.04021 -0.129501,-0.362103 -0.218502,-0.738806 -0.267202,-1.13091 -0.0161001,-0.0903007 -0.0322003,-0.184602 -0.0483004,-0.282802 -0.0165001,-0.0978008 -0.0245002,-0.199602 -0.0245002,-0.305303 0,-0.0449004 0,-0.0903007 0,-0.135701 0,-0.0449004 0,-0.0978008 0,-0.158101 0,-0.0454004 0,-0.0904007 0,-0.135701 0,-0.0454004 0,-0.0904007 0,-0.135701 0,-0.211002 0.00800007,-0.418503 0.0245002,-0.622105 0.0161001,-0.203502 0.0322003,-0.418103 0.0483004,-0.644505 0.0326003,-0.211002 0.0691006,-0.429504 0.109301,-0.655605 0.0406003,-0.226402 0.0851007,-0.452404 0.133801,-0.678406 0.194002,-0.769206 0.469204,-1.50761 0.825407,-2.21642 0.356203,-0.708506 0.801307,-1.38691 1.33531,-2.03542 0.534404,-0.648105 1.16161,-1.13441 1.88202,-1.45861 0.720006,-0.324303 1.53351,-0.486004 2.44022,-0.486004 0.242702,0 0.481504,0.0150001 0.716106,0.0450004 0.234702,0.0303002 0.465504,0.0828007 0.692006,0.158501 0.226602,0.0600005 0.445104,0.135701 0.655605,0.226002 0.210502,0.0904007 0.421003,0.188602 0.631405,0.293902 0,-0.0603005 0.0119001,-0.116701 0.0365003,-0.169601 0.0241002,-0.0529004 0.0444004,-0.101801 0.0605005,-0.146701 0.0322003,-0.0454004 0.0767006,-0.0793007 0.133401,-0.101801 0.0568005,-0.0229002 0.125401,-0.0339003 0.206702,-0.0339003l0.971108 -0.0454004c0.0809007,0.0300002 0.149501,0.0564005 0.206202,0.0793007 0.0568005,0.0225002 0.101201,0.0489004 0.133401,0.0789006 0.0326003,0.0453004 0.0610005,0.0943008 0.0851007,0.147101 0.0242002,0.0529004 0.0365003,0.116801 0.0365003,0.192102l-0.655605 11.6241c-0.0161001,0.105701 -0.0364003,0.188602 -0.0606005,0.248902 -0.0241002,0.0604005 -0.0525004,0.105701 -0.0851007,0.135701 -0.0483004,0.0300002 -0.101201,0.0489004 -0.157501,0.0564005 -0.0568005,0.00750006 -0.125801,0.0114001 -0.206702,0.0114001l-1.16551 0c-0.0809007,0 -0.149501,-0.00390003 -0.206202,-0.0114001 -0.0568005,-0.00750006 -0.101201,-0.0339003 -0.133401,-0.0789006 -0.0326003,-0.0304002 -0.0568005,-0.0753006 -0.0728006,-0.135701 -0.0166001,-0.0603005 -0.0246002,-0.120701 -0.0246002,-0.181001l0.291402 -5.38234zm0.509804 -5.17914c-0.161701,-0.0599005 -0.335803,-0.124201 -0.521704,-0.192102 -0.186302,-0.0678006 -0.368403,-0.124201 -0.546304,-0.169601 -0.194402,-0.0450004 -0.388803,-0.0828007 -0.582705,-0.112801 -0.194402,-0.0304002 -0.388803,-0.0454004 -0.582805,-0.0454004 -0.696206,0 -1.31541,0.128201 -1.85742,0.384203 -0.542504,0.256402 -0.999908,0.633505 -1.37221,1.13091 -0.372203,0.497404 -0.687706,1.02161 -0.946908,1.57191 -0.258802,0.550205 -0.453204,1.12691 -0.582705,1.73001 -0.0483004,0.226102 -0.0890007,0.452104 -0.121201,0.678506 -0.0326003,0.226002 -0.0648005,0.452004 -0.0974008,0.678406 -0.0161001,0.226102 -0.0322003,0.441004 -0.0483004,0.644605 -0.0165001,0.203502 -0.0245002,0.403103 -0.0245002,0.599105 0,0.0604005 0,0.132201 0,0.215002 0,0.0828007 0,0.162101 0,0.237502 0,0.0753006 0.00420003,0.154201 0.0123001,0.237402 0.00800007,0.0829007 0.0203002,0.162101 0.0364003,0.237502 0.0322003,0.226002 0.0771006,0.441004 0.133401,0.644505 0.0567005,0.203502 0.133801,0.395603 0.230802,0.576705 0.0970008,0.180701 0.222802,0.316303 0.376503,0.407103 0.153701,0.0903007 0.335803,0.135701 0.546304,0.135701 0.258802,0 0.501404,-0.0415003 0.728406,-0.124701 0.226602,-0.0828007 0.437104,-0.214602 0.631005,-0.395603 0.194402,-0.181101 0.380303,-0.369203 0.558605,-0.565305 0.177901,-0.196002 0.340103,-0.399503 0.485804,-0.610605 0.0322003,-0.0453004 0.0605005,-0.0868007 0.0847007,-0.124601 0.0245002,-0.0375003 0.0525004,-0.0789006 0.0851007,-0.124301 0.0161001,-0.0299002 0.0402003,-0.0678006 0.0728006,-0.113201 0.0322003,-0.0449004 0.0568005,-0.0903007 0.0729006,-0.135701 0.0487004,-0.0753006 0.0970008,-0.154201 0.145701,-0.237402 0.0487004,-0.0829007 0.0969008,-0.154301 0.145601,-0.214602 0.340103,-0.527804 0.663705,-1.07051 0.971108,-1.62831 0.307503,-0.557705 0.598805,-1.12341 0.874107,-1.69611 0.275302,-0.573105 0.506104,-1.15731 0.692006,-1.75291 0.186402,-0.595305 0.319803,-1.20231 0.400603,-1.82041l0 -0.0454004zm7.55146 3.82223c0.0322003,-0.105701 0.0644005,-0.229902 0.0970008,-0.373103 0.0322003,-0.143201 0.0729006,-0.290302 0.121601,-0.441004 0.0482004,-0.150701 0.0969008,-0.301802 0.145601,-0.452504 0.0483004,-0.150601 0.105101,-0.301302 0.169901,-0.452404 0.177801,-0.482404 0.392503,-0.949808 0.643305,-1.40191 0.251102,-0.452404 0.538204,-0.881907 0.862207,-1.28901 0.323503,-0.407103 0.719906,-0.716306 1.18961,-0.927408 0.469204,-0.211002 1.00371,-0.316303 1.60251,-0.316303 0.0161001,0 0.0322003,0 0.0487004,0 0.0161001,0 0.0403003,0 0.0729006,0 0.0161001,0.0150001 0.0364003,0.0225002 0.0605005,0.0225002 0.0242002,0 0.0445004,0 0.0606005,0 0.0326003,0 0.0690006,0 0.109201,0 0.0407003,0 0.0852007,0 0.133901,0 0.113001,0.0150001 0.218502,0.0414003 0.315503,0.0793007 0.0970008,0.0374003 0.194402,0.0788006 0.291302,0.124201 0.0809007,0.0604005 0.145701,0.128201 0.194402,0.203502 0.0483004,0.0754006 0.0729006,0.165701 0.0729006,0.271402l-0.0729006 1.26621c0,0.0304002 0,0.0529004 0,0.0679006 0,0.0153001 0,0.0228002 0,0.0228002 -0.0165001,0.0450004 -0.0326003,0.0829007 -0.0487004,0.112801 -0.0161001,0.0304002 -0.0406003,0.0604005 -0.0728006,0.0908007 -0.0161001,0.0299002 -0.0445004,0.0528004 -0.0851007,0.0678006 -0.0403003,0.0150001 -0.0767006,0.0225002 -0.109301,0.0225002 -0.0161001,0 -0.0322003,0 -0.0483004,0 -0.0165001,0 -0.0326003,0 -0.0487004,0 -0.0161001,0 -0.0284002,0 -0.0364003,0 -0.00810007,0 -0.0123001,0 -0.0123001,0 -0.0161001,0 -0.0284002,-0.00360003 -0.0364003,-0.0114001 -0.00810007,-0.00750006 -0.0203002,-0.0111001 -0.0364003,-0.0111001 -0.0161001,0 -0.0364003,0 -0.0606005,0 -0.0241002,0 -0.0445004,-0.00750006 -0.0605005,-0.0229002 -0.0327003,0 -0.0568005,-0.00350003 -0.0729006,-0.0110001 -0.0165001,-0.00750006 -0.0406003,-0.0189002 -0.0728006,-0.0339003 -0.0487004,-0.0150001 -0.0932008,-0.0340003 -0.133901,-0.0568005 -0.0402003,-0.0225002 -0.0766006,-0.0415003 -0.109201,-0.0564005 -0.0322003,-0.0150001 -0.0648005,-0.0265002 -0.0970008,-0.0340003 -0.0326003,-0.00750006 -0.0648005,-0.0189002 -0.0970008,-0.0339003 -0.0487004,0 -0.0893007,-0.00350003 -0.121501,-0.0114001 -0.0326003,-0.00750006 -0.0648005,-0.0186002 -0.0970008,-0.0339003 -0.0326003,-0.0150001 -0.0648005,-0.0261002 -0.0974008,-0.0340003 -0.0322003,-0.00750006 -0.0648005,-0.0110001 -0.0970008,-0.0110001 -0.0487004,-0.0150001 -0.0889007,-0.0229002 -0.121501,-0.0229002 -0.0322003,0 -0.0648005,0 -0.0970008,0 -0.210502,0 -0.400603,0.0304002 -0.570505,0.0907007 -0.170201,0.0604005 -0.327803,0.150701 -0.473404,0.271402 -0.145701,0.120701 -0.275302,0.248502 -0.388803,0.384203 -0.113101,0.135701 -0.218502,0.279302 -0.315503,0.430004 -0.404903,0.603105 -0.764906,1.23221 -1.08041,1.88822 -0.315903,0.655905 -0.586905,1.33051 -0.813507,2.02392 -0.226602,0.693806 -0.412903,1.39481 -0.558605,2.10322 -0.145701,0.708806 -0.258702,1.41721 -0.339603,2.12612 0,0.0449004 -0.00430004,0.0903007 -0.0123001,0.135701 -0.00810007,0.0449004 -0.0123001,0.0903007 -0.0123001,0.135601 -0.0161001,0.0604005 -0.0241002,0.112901 -0.0241002,0.158201 0,0.0454004 0,0.0903007 0,0.135701 -0.0161001,0.0903007 -0.0242002,0.181101 -0.0242002,0.271402 0,0.0903007 0,0.181001 0,0.271402 -0.0165001,0.0753006 -0.0364003,0.143201 -0.0610005,0.203502 -0.0241002,0.0604005 -0.0605005,0.105701 -0.109201,0.135701 -0.0483004,0.0300002 -0.105001,0.0489004 -0.169801,0.0564005 -0.0648005,0.00750006 -0.137701,0.0114001 -0.218602,0.0114001l-1.06851 0c-0.0808007,0 -0.153701,-0.00390003 -0.218502,-0.0114001 -0.0648005,-0.00750006 -0.113101,-0.0339003 -0.145701,-0.0789006 -0.0482004,-0.0304002 -0.0809007,-0.0753006 -0.0969008,-0.135701 -0.0161001,-0.0603005 -0.0242002,-0.120701 -0.0242002,-0.181001l0.631005 -11.7145c0,-0.0603005 0.0165001,-0.117101 0.0487004,-0.169601 0.0322003,-0.0528004 0.0729006,-0.101701 0.121601,-0.147101 0.0483004,-0.0304002 0.105001,-0.0564005 0.169801,-0.0793007 0.0648005,-0.0225002 0.137601,-0.0339003 0.218502,-0.0339003l1.06851 -0.0450004c0.0809007,0.0300002 0.153701,0.0564005 0.218502,0.0789006 0.0644005,0.0229002 0.113101,0.0568005 0.145701,0.101801 0.0322003,0.0453004 0.0606005,0.0943008 0.0847007,0.147101 0.0246002,0.0529004 0.0364003,0.116801 0.0364003,0.192102l-0.266802 4.93024zm15.4421 1.35691c-0.0648005,0.180701 -0.129601,0.358203 -0.193902,0.531304 -0.0648005,0.173601 -0.137701,0.343203 -0.218602,0.508904 -0.0326003,0.0903007 -0.0690006,0.181001 -0.109201,0.271402 -0.0407003,0.0903007 -0.0851007,0.173501 -0.133801,0.248902 -0.0322003,0.0903007 -0.0729006,0.180601 -0.121201,0.271302 -0.0487004,0.0904007 -0.0974008,0.180701 -0.145701,0.271402 -0.259102,0.497404 -0.558505,0.976308 -0.898607,1.43581 -0.339703,0.459904 -0.720406,0.893407 -1.14091,1.30051 -0.404903,0.422103 -0.858007,0.731306 -1.35991,0.927408 -0.501804,0.196002 -1.04391,0.293802 -1.62661,0.293802 -0.485804,0 -0.902507,-0.0753006 -1.25061,-0.226002 -0.348103,-0.151101 -0.627205,-0.392103 -0.837707,-0.723806 -0.210502,-0.331703 -0.380303,-0.678506 -0.509904,-1.04021 -0.129601,-0.362103 -0.218502,-0.738806 -0.267202,-1.13091 -0.0161001,-0.0903007 -0.0322003,-0.184602 -0.0483004,-0.282802 -0.0165001,-0.0978008 -0.0245002,-0.199602 -0.0245002,-0.305303 0,-0.0449004 0,-0.0903007 0,-0.135701 0,-0.0449004 0,-0.0978008 0,-0.158101 0,-0.0454004 0,-0.0904007 0,-0.135701 0,-0.0454004 0,-0.0904007 0,-0.135701 0,-0.211002 0.00800007,-0.418503 0.0245002,-0.622105 0.0161001,-0.203502 0.0322003,-0.418103 0.0483004,-0.644505 0.0326003,-0.211002 0.0690006,-0.429504 0.109301,-0.655605 0.0406003,-0.226402 0.0851007,-0.452404 0.133801,-0.678406 0.193902,-0.769206 0.469204,-1.50761 0.825407,-2.21642 0.356103,-0.708506 0.801207,-1.38691 1.33531,-2.03542 0.534404,-0.648105 1.16161,-1.13441 1.88202,-1.45861 0.719906,-0.324303 1.53351,-0.486004 2.44022,-0.486004 0.242602,0 0.481504,0.0150001 0.716106,0.0450004 0.234602,0.0303002 0.465404,0.0828007 0.692006,0.158501 0.226602,0.0600005 0.445104,0.135701 0.655605,0.226002 0.210502,0.0904007 0.420903,0.188602 0.631405,0.293902 0,-0.0603005 0.0119001,-0.116701 0.0364003,-0.169601 0.0242002,-0.0529004 0.0445004,-0.101801 0.0606005,-0.146701 0.0322003,-0.0454004 0.0767006,-0.0793007 0.133401,-0.101801 0.0568005,-0.0229002 0.125401,-0.0339003 0.206702,-0.0339003l0.971108 -0.0454004c0.0808007,0.0300002 0.149401,0.0564005 0.206202,0.0793007 0.0567005,0.0225002 0.101201,0.0489004 0.133401,0.0789006 0.0326003,0.0453004 0.0610005,0.0943008 0.0851007,0.147101 0.0242002,0.0529004 0.0364003,0.116801 0.0364003,0.192102l-0.655505 11.6241c-0.0161001,0.105701 -0.0365003,0.188602 -0.0606005,0.248902 -0.0241002,0.0604005 -0.0525004,0.105701 -0.0851007,0.135701 -0.0483004,0.0300002 -0.101201,0.0489004 -0.157601,0.0564005 -0.0567005,0.00750006 -0.125701,0.0114001 -0.206602,0.0114001l-1.16551 0c-0.0809007,0 -0.149501,-0.00390003 -0.206202,-0.0114001 -0.0568005,-0.00750006 -0.101201,-0.0339003 -0.133401,-0.0789006 -0.0326003,-0.0304002 -0.0568005,-0.0753006 -0.0729006,-0.135701 -0.0165001,-0.0603005 -0.0245002,-0.120701 -0.0245002,-0.181001l0.291302 -5.38234zm0.509904 -5.17914c-0.161801,-0.0599005 -0.335803,-0.124201 -0.521704,-0.192102 -0.186402,-0.0678006 -0.368503,-0.124201 -0.546304,-0.169601 -0.194402,-0.0450004 -0.388803,-0.0828007 -0.582805,-0.112801 -0.194402,-0.0304002 -0.388703,-0.0454004 -0.582705,-0.0454004 -0.696206,0 -1.31541,0.128201 -1.85752,0.384203 -0.542504,0.256402 -0.999808,0.633505 -1.37211,1.13091 -0.372303,0.497404 -0.687806,1.02161 -0.946908,1.57191 -0.258802,0.550205 -0.453204,1.12691 -0.582805,1.73001 -0.0483004,0.226102 -0.0889007,0.452104 -0.121101,0.678506 -0.0326003,0.226002 -0.0648005,0.452004 -0.0974008,0.678406 -0.0161001,0.226102 -0.0322003,0.441004 -0.0483004,0.644605 -0.0165001,0.203502 -0.0245002,0.403103 -0.0245002,0.599105 0,0.0604005 0,0.132201 0,0.215002 0,0.0828007 0,0.162101 0,0.237502 0,0.0753006 0.00420003,0.154201 0.0122001,0.237402 0.00810007,0.0829007 0.0204002,0.162101 0.0365003,0.237502 0.0321003,0.226002 0.0770006,0.441004 0.133401,0.644505 0.0567005,0.203502 0.133801,0.395603 0.230802,0.576705 0.0969008,0.180701 0.222702,0.316303 0.376503,0.407103 0.153701,0.0903007 0.335803,0.135701 0.546304,0.135701 0.258702,0 0.501404,-0.0415003 0.728406,-0.124701 0.226602,-0.0828007 0.437004,-0.214602 0.631005,-0.395603 0.194402,-0.181101 0.380303,-0.369203 0.558605,-0.565305 0.177901,-0.196002 0.340103,-0.399503 0.485704,-0.610605 0.0322003,-0.0453004 0.0606005,-0.0868007 0.0847007,-0.124601 0.0246002,-0.0375003 0.0526004,-0.0789006 0.0852007,-0.124301 0.0161001,-0.0299002 0.0402003,-0.0678006 0.0728006,-0.113201 0.0322003,-0.0449004 0.0568005,-0.0903007 0.0728006,-0.135701 0.0488004,-0.0753006 0.0970008,-0.154201 0.145701,-0.237402 0.0487004,-0.0829007 0.0970008,-0.154301 0.145701,-0.214602 0.340103,-0.527804 0.663605,-1.07051 0.971108,-1.62831 0.307503,-0.557705 0.598805,-1.12341 0.874107,-1.69611 0.275302,-0.573105 0.506104,-1.15731 0.692006,-1.75291 0.186302,-0.595305 0.319703,-1.20231 0.400603,-1.82041l0 -0.0454004zm14.7628 -0.158201l-0.437004 7.80226c0,0.301402 0.0241002,0.572805 0.0728006,0.814207 0.0487004,0.241402 0.121601,0.452404 0.218502,0.633105 0.0970008,0.196002 0.258802,0.343103 0.485804,0.441004 0.226602,0.0982008 0.517904,0.154601 0.874107,0.169601 0.129201,0 0.258702,-0.00750006 0.388303,-0.0225002 0.129601,-0.0150001 0.258802,-0.0300002 0.388403,-0.0454004 0.129601,-0.0300002 0.254902,-0.0603005 0.376503,-0.0903007 0.121501,-0.0300002 0.238802,-0.0679006 0.351903,-0.113201 0.0487004,-0.0150001 0.101201,-0.0300002 0.158001,-0.0450004 0.0567005,-0.0154001 0.109201,-0.0304002 0.157901,-0.0453004 0.0483004,0 0.0970008,-0.00750006 0.145701,-0.0225002 0.0483004,-0.0154001 0.0970008,-0.0304002 0.145701,-0.0454004 0.0970008,-0.0300002 0.182101,-0.0528004 0.254902,-0.0678006 0.0729006,-0.0150001 0.141501,-0.0225002 0.206302,-0.0225002 0.0322003,0 0.0525004,0.00350003 0.0605005,0.0110001 0.00810007,0.00750006 0.0204002,0.0190002 0.0365003,0.0340003 0,0.0153001 0.00420003,0.0264002 0.0122001,0.0339003 0.00810007,0.00750006 0.0204002,0.0114001 0.0365003,0.0114001 0,0.0150001 0.00380003,0.0264002 0.0123001,0.0339003 0.00800007,0.00750006 0.0118001,0.0190002 0.0118001,0.0340003 0,0.0149001 0,0.0264002 0,0.0339003 0,0.00750006 0,0.0114001 0,0.0114001 0,0.0150001 0,0.0264002 0,0.0339003 0,0.00750006 0,0.0111001 0,0.0111001l-0.0241002 0.746306c-0.0161001,0.151101 -0.0648005,0.275302 -0.145701,0.373103 -0.0809007,0.0983008 -0.210502,0.185002 -0.388403,0.260402 -0.162201,0.0603005 -0.340003,0.112801 -0.534404,0.158101 -0.194002,0.0454004 -0.388403,0.0904007 -0.582705,0.135701 -0.145701,0.0300002 -0.291402,0.0489004 -0.437104,0.0564005 -0.145701,0.00750006 -0.291402,0.0190002 -0.437004,0.0340003 -0.145701,0.0153001 -0.266902,0.0264002 -0.364303,0.0339003 -0.0969008,0.00750006 -0.177801,0.0114001 -0.242602,0.0114001 -0.550605,0 -1.04011,-0.0678006 -1.46911,-0.203502 -0.429004,-0.135701 -0.781006,-0.346703 -1.05621,-0.633105 -0.291402,-0.286802 -0.505704,-0.626005 -0.643305,-1.01771 -0.137701,-0.392103 -0.206302,-0.844507 -0.206302,-1.35691l0.461204 -8.18687 -1.35981 0c-0.0161001,0.0150001 -0.0284002,0.0225002 -0.0365003,0.0225002 -0.00800007,0 -0.0118001,0 -0.0118001,0 -0.0165001,0 -0.0284002,0 -0.0364003,0 -0.00810007,0 -0.0204002,0 -0.0365003,0 -0.0487004,0 -0.0893007,-0.00750006 -0.121501,-0.0225002 -0.0322003,-0.0149001 -0.0648005,-0.0299002 -0.0970008,-0.0453004 -0.0326003,-0.0300002 -0.0567005,-0.0714006 -0.0728006,-0.124301 -0.0165001,-0.0528004 -0.0246002,-0.109201 -0.0246002,-0.169601l0 -0.112801c0,0.0150001 0,0.0225002 0,0.0225002 0,0 0,-0.00750006 0,-0.0225002 0,-0.0154001 0,-0.0264002 0,-0.0339003 0,-0.00790006 0,-0.0190002 0,-0.0339003 0,0 0,-0.00400003 0,-0.0115001 0,-0.00750006 0,-0.0189002 0,-0.0339003 0,-0.0150001 0,-0.0264002 0,-0.0339003 0,-0.00750006 0,-0.0190002 0,-0.0339003 0,0 0,-0.00400003 0,-0.0115001 0,-0.00750006 0,-0.0189002 0,-0.0339003 0,-0.0150001 0,-0.0264002 0,-0.0339003 0,-0.00750006 0,-0.0190002 0,-0.0340003 0,-0.0753006 0.00810007,-0.154601 0.0246002,-0.237402 0.0161001,-0.0828007 0.0402003,-0.154601 0.0728006,-0.214602 0.0322003,-0.0757006 0.0809007,-0.128201 0.145701,-0.158601 0.0648005,-0.0299002 0.153701,-0.0449004 0.266802,-0.0449004l1.35991 -0.0454004 0.169801 -2.93982c0,-0.0604005 0.0123001,-0.117201 0.0364003,-0.169601 0.0246002,-0.0529004 0.0610005,-0.101801 0.109301,-0.147201 0.0487004,-0.0303002 0.105401,-0.0564005 0.170201,-0.0792007 0.0648005,-0.0225002 0.137601,-0.0340003 0.218502,-0.0340003l1.09271 -0.0449004c0.0808007,0.0299002 0.153701,0.0564005 0.218502,0.0789006 0.0644005,0.0228002 0.113101,0.0489004 0.145701,0.0792007 0.0322003,0.0454004 0.0605005,0.0979008 0.0847007,0.158201 0.0245002,0.0604005 0.0364003,0.128201 0.0364003,0.203602l-0.169801 2.89482 4.03043 0c0.0809007,0.0300002 0.153701,0.0564005 0.218502,0.0793007 0.0648005,0.0225002 0.105501,0.0564005 0.121601,0.101801 0.0321003,0.0449004 0.0567005,0.0938008 0.0728006,0.146701 0.0161001,0.0529004 0.0241002,0.109301 0.0241002,0.169601 0,0.0150001 0,0.0264002 0,0.0339003 0,0.00750006 0,0.0115001 0,0.0115001 0,0.0150001 0,0.0264002 0,0.0339003 0,0.00750006 0,0.0189002 0,0.0339003 0,0.0150001 0,0.0264002 0,0.0339003 0,0.00750006 0,0.0115001 0,0.0115001 0,0.0150001 0,0.0260002 0,0.0339003 0,0.00750006 0,0.0185002 0,0.0339003 0,0.0150001 0,0.0261002 0,0.0339003 0,0.00750006 0,0.0186002 0,0.0340003 0,0.0150001 0,0.0260002 0,0.0339003 0,0.00750006 0,0.0110001 0,0.0110001 0,0.0908007 -0.00800007,0.169601 -0.0241002,0.237502 -0.0161001,0.0678006 -0.0407003,0.139601 -0.0728006,0.215002 -0.0326003,0.0603005 -0.0852007,0.109201 -0.158001,0.146701 -0.0728006,0.0379003 -0.166001,0.0568005 -0.279102,0.0568005l-4.00633 -0.0454004zm5.24464 4.88494c0,-0.0604005 0.00430004,-0.135701 0.0123001,-0.226002 0.00800007,-0.0908007 0.0203002,-0.188602 0.0364003,-0.294302 0,-0.0450004 0.00430004,-0.0903007 0.0123001,-0.135701 0.00800007,-0.0449004 0.0199002,-0.0978008 0.0364003,-0.158201 0.0161001,-0.0453004 0.0284002,-0.0903007 0.0364003,-0.135601 0.00810007,-0.0454004 0.0199002,-0.0904007 0.0365003,-0.135701 0.129101,-0.678506 0.339603,-1.33441 0.631005,-1.96752 0.291302,-0.633105 0.655505,-1.22871 1.09261,-1.78651 0.437004,-0.573105 0.975308,-1.00271 1.61481,-1.28911 0.639505,-0.286302 1.37981,-0.429504 2.22172,-0.429504 0.874107,0 1.62661,0.139201 2.25812,0.418103 0.631405,0.278902 1.14931,0.704906 1.55381,1.27761 0.388703,0.558205 0.683906,1.16131 0.886307,1.80941 0.202502,0.648405 0.303702,1.34191 0.303702,2.08072 0,0.180601 -0.00420003,0.361703 -0.0123001,0.542704 -0.00800007,0.180701 -0.0284002,0.361703 -0.0605005,0.542804 -0.0166001,0.0903007 -0.0284002,0.180701 -0.0365003,0.271402 -0.00840007,0.0903007 -0.0203002,0.180601 -0.0364003,0.271402 -0.0165001,0.105301 -0.0326003,0.203502 -0.0487004,0.293802 -0.0161001,0.0904007 -0.0326003,0.181101 -0.0487004,0.271402 -0.145701,0.678506 -0.368003,1.32691 -0.667405,1.94502 -0.299902,0.618105 -0.667905,1.21371 -1.10491,1.78651 -0.437104,0.557705 -0.971108,0.976208 -1.60251,1.25511 -0.631505,0.278902 -1.35181,0.418503 -2.16122,0.418503 -0.874107,0 -1.63081,-0.139601 -2.26992,-0.418503 -0.639505,-0.278902 -1.15361,-0.704906 -1.54201,-1.27761 -0.404803,-0.573105 -0.704206,-1.18371 -0.898207,-1.83182 -0.194402,-0.648505 -0.291402,-1.34191 -0.291402,-2.08072 0,-0.0754006 0,-0.154701 0,-0.237502 0,-0.0828007 0,-0.169601 0,-0.259902 0,-0.0754006 0.00390003,-0.154701 0.0119001,-0.237502 0.00800007,-0.0828007 0.0203002,-0.162101 0.0364003,-0.237402l0 -0.0454004zm2.08832 0.0678006c-0.0161001,0.0904007 -0.0242002,0.173601 -0.0242002,0.248902 0,0.0754006 0,0.150701 0,0.226102 0,0.0303002 0,0.0642005 0,0.101701 0,0.0379003 0,0.0718006 0,0.101801 0,0.0453004 0,0.0868007 0,0.124201 0,0.0379003 0,0.0718006 0,0.101801 0,0.0304002 0,0.0643005 0,0.101801 0,0.0378003 0,0.0718006 0,0.101701 0,0.0454004 0,0.0868007 0,0.124701 0,0.0375003 0,0.0714006 0,0.101801 0,0.0753006 0.00390003,0.150601 0.0119001,0.226002 0.00800007,0.0753006 0.0203002,0.150701 0.0364003,0.226002 0.0326003,0.422403 0.109301,0.829507 0.230802,1.22121 0.121601,0.392103 0.287202,0.761706 0.497604,1.10841 0.210502,0.346703 0.498104,0.606705 0.862307,0.780206 0.364203,0.173201 0.813107,0.260002 1.34761,0.260002 0.517904,0 0.971008,-0.0979008 1.35941,-0.293902 0.388703,-0.196002 0.712306,-0.482404 0.971508,-0.859507 0.242602,-0.392103 0.448904,-0.795207 0.619105,-1.20981 0.169901,-0.414503 0.303302,-0.855507 0.400703,-1.32301 0.0161001,-0.105701 0.0322003,-0.211002 0.0482004,-0.316703 0.0161001,-0.105301 0.0327003,-0.211002 0.0487004,-0.316703 0.0161001,-0.0904007 0.0284002,-0.188202 0.0365003,-0.293902 0.00800007,-0.105301 0.0203002,-0.211002 0.0364003,-0.316703 0.0161001,-0.211102 0.0284002,-0.410703 0.0364003,-0.599205 0.00810007,-0.188602 0.0123001,-0.365703 0.0123001,-0.531304 0,-0.0454004 0,-0.0868007 0,-0.124701 0,-0.0375003 0,-0.0789006 0,-0.124201 -0.0165001,-0.0300002 -0.0246002,-0.0679006 -0.0246002,-0.113201 0,-0.0450004 0,-0.0904007 0,-0.135701 0,-0.0754006 -0.00380003,-0.154301 -0.0118001,-0.237502 -0.00850007,-0.0828007 -0.0204002,-0.169601 -0.0365003,-0.259902 -0.0487004,-0.392103 -0.137601,-0.768806 -0.267202,-1.13091 -0.129601,-0.361703 -0.307403,-0.708406 -0.534004,-1.04021 -0.210502,-0.331703 -0.493804,-0.580205 -0.850007,-0.746306 -0.356103,-0.165601 -0.777106,-0.248902 -1.26241,-0.248902 -0.501904,0 -0.938908,0.0868007 -1.31121,0.260402 -0.372603,0.173101 -0.680106,0.433504 -0.922808,0.780206 -0.242602,0.331703 -0.453104,0.689506 -0.631405,1.07411 -0.177901,0.384603 -0.315503,0.780206 -0.412503,1.18731 -0.0326003,0.150601 -0.0610005,0.305303 -0.0851007,0.463404 -0.0242002,0.158601 -0.0525004,0.320703 -0.0851007,0.486404 -0.0161001,0.150701 -0.0365003,0.297802 -0.0606005,0.441004 -0.0241002,0.143201 -0.0364003,0.282802 -0.0364003,0.418503l0 -0.0454004z"/>
   <path id="_151404056" class="fil0" d="M86.9973 148.779c-0.0487004,0.181101 -0.105501,0.358203 -0.169901,0.531304 -0.0648005,0.173601 -0.137601,0.350703 -0.218502,0.531804 -0.0326003,0.0903007 -0.0690006,0.180601 -0.109301,0.271302 -0.0406003,0.0904007 -0.0851007,0.180701 -0.133801,0.271402 -0.0322003,0.105301 -0.0728006,0.203602 -0.121101,0.293902 -0.0487004,0.0903007 -0.0974008,0.181001 -0.145701,0.271402 -0.259202,0.512704 -0.566605,0.998708 -0.922808,1.45861 -0.356103,0.460004 -0.752506,0.901007 -1.18961,1.32301 -0.437004,0.422103 -0.906707,0.731306 -1.40851,0.927408 -0.501904,0.196002 -1.03591,0.293802 -1.60261,0.293802 -0.420503,0 -0.788906,-0.0678006 -1.10441,-0.203502 -0.316003,-0.135701 -0.579005,-0.346703 -0.789406,-0.633105 -0.210502,-0.286802 -0.384203,-0.588105 -0.521804,-0.904907 -0.137601,-0.316303 -0.238802,-0.648005 -0.303602,-0.994808 -0.0161001,-0.0603005 -0.0284002,-0.120701 -0.0365003,-0.181001 -0.00800007,-0.0604005 -0.0203002,-0.120701 -0.0364003,-0.181101 -0.0161001,-0.0449004 -0.0284002,-0.0978008 -0.0364003,-0.158101 -0.00800007,-0.0604005 -0.0123001,-0.120701 -0.0123001,-0.181101 -0.0161001,-0.120301 -0.0241002,-0.237502 -0.0241002,-0.350303 0,-0.113201 0,-0.222402 0,-0.328103 0,-0.211102 0.00800007,-0.425704 0.0241002,-0.644605 0.0165001,-0.218502 0.0326003,-0.441004 0.0487004,-0.667005 0.0322003,-0.226002 0.0686006,-0.456004 0.109301,-0.689906 0.0406003,-0.233502 0.0932008,-0.470904 0.157901,-0.712406 0.177901,-0.783706 0.445104,-1.53401 0.801307,-2.24992 0.356203,-0.716306 0.801307,-1.39831 1.33531,-2.04682 0.534004,-0.648105 1.16121,-1.13441 1.88162,-1.45861 0.720406,-0.324303 1.53391,-0.486004 2.44022,-0.486004 0.210502,0 0.420903,0.0150001 0.631405,0.0450004 0.210502,0.0303002 0.421003,0.0678006 0.631505,0.113201 0.210002,0.0453004 0.412403,0.105301 0.606805,0.181001 0.194402,0.0754006 0.388403,0.158201 0.582805,0.248502l0.267202 -4.92984c0,-0.0603005 0.0118001,-0.113201 0.0364003,-0.158601 0.0241002,-0.0449004 0.0606005,-0.0828007 0.109301,-0.112801 0.0483004,-0.0303002 0.100801,-0.0528004 0.157501,-0.0678006 0.0568005,-0.0154001 0.117301,-0.0229002 0.182101,-0.0229002l1.16551 -0.0450004c0.0648005,0.0300002 0.121501,0.0525004 0.169801,0.0679006 0.0487004,0.0150001 0.0974008,0.0375003 0.145701,0.0678006 0.0487004,0.0300002 0.0851007,0.0714006 0.109301,0.124301 0.0245002,0.0528004 0.0364003,0.116701 0.0364003,0.192102l-0.946508 16.6446c-0.0166001,0.105701 -0.0365003,0.188602 -0.0610005,0.248902 -0.0242002,0.0604005 -0.0525004,0.105701 -0.0847007,0.135701 -0.0487004,0.0300002 -0.101201,0.0489004 -0.158001,0.0564005 -0.0567005,0.00750006 -0.125301,0.0114001 -0.206202,0.0114001l-1.14141 0c-0.0809007,0 -0.153701,-0.00390003 -0.218502,-0.0114001 -0.0648005,-0.00750006 -0.113501,-0.0339003 -0.145701,-0.0789006 -0.0326003,-0.0304002 -0.0567005,-0.0753006 -0.0728006,-0.135701 -0.0161001,-0.0603005 -0.0242002,-0.120701 -0.0242002,-0.181001l0.315603 -5.49555zm0.291302 -5.17874c-0.0809007,-0.0150001 -0.166001,-0.0339003 -0.254902,-0.0568005 -0.0890007,-0.0225002 -0.174101,-0.0489004 -0.255002,-0.0789006 -0.0809007,-0.0150001 -0.166001,-0.0379003 -0.254902,-0.0678006 -0.0890007,-0.0304002 -0.174101,-0.0529004 -0.255002,-0.0679006 -0.0809007,-0.0303002 -0.166001,-0.0528004 -0.254902,-0.0678006 -0.0889007,-0.0150001 -0.174101,-0.0304002 -0.255002,-0.0454004 -0.0969008,0 -0.190102,-0.00350003 -0.279002,-0.0110001 -0.0894007,-0.00790006 -0.174101,-0.0115001 -0.255002,-0.0115001 -0.696206,0 -1.30731,0.124301 -1.83332,0.373203 -0.526004,0.248502 -0.975308,0.621605 -1.34761,1.11941 -0.356103,0.497404 -0.663605,1.02131 -0.922808,1.57151 -0.258702,0.550705 -0.461204,1.12731 -0.606805,1.73011 -0.0488004,0.226402 -0.0890007,0.452404 -0.121601,0.678406 -0.0322003,0.226402 -0.0648005,0.452404 -0.0970008,0.678506 -0.0161001,0.226402 -0.0322003,0.441004 -0.0487004,0.644505 -0.0161001,0.203502 -0.0241002,0.403503 -0.0241002,0.599605 0,0.0603005 0,0.131701 0,0.214502 0,0.0833007 0,0.162101 0,0.237502 0,0.0753006 0.00420003,0.154601 0.0123001,0.237402 0.00800007,0.0833007 0.0199002,0.162201 0.0364003,0.237502 0.0322003,0.226402 0.0728006,0.441004 0.121101,0.644505 0.0487004,0.203602 0.121601,0.396103 0.218502,0.576705 0.0809007,0.181101 0.194402,0.316803 0.340103,0.407103 0.145701,0.0907007 0.323603,0.135701 0.534004,0.135701 0.226602,0 0.441304,-0.0339003 0.643705,-0.101801 0.202102,-0.0678006 0.392203,-0.169601 0.570505,-0.305303 0.177901,-0.135701 0.343903,-0.282402 0.497604,-0.441004 0.153701,-0.158201 0.295602,-0.327803 0.425203,-0.508804 0.0322003,-0.0300002 0.0644005,-0.0639005 0.0970008,-0.101801 0.0322003,-0.0375003 0.0648005,-0.0789006 0.0970008,-0.124201 0.0161001,-0.0300002 0.0326003,-0.0529004 0.0487004,-0.0679006 0.0161001,-0.0150001 0.0322003,-0.0379003 0.0487004,-0.0678006 0,-0.0150001 0.00800007,-0.0340003 0.0241002,-0.0564005 0.0161001,-0.0229002 0.0322003,-0.0415003 0.0487004,-0.0568005 0.177901,-0.256002 0.351903,-0.504904 0.521804,-0.746306 0.170201,-0.241002 0.327703,-0.482404 0.473404,-0.723506 0.0809007,-0.120701 0.153801,-0.237402 0.218602,-0.350603 0.0647005,-0.113201 0.129501,-0.230002 0.194302,-0.350703 0.0648005,-0.105301 0.129601,-0.218502 0.194402,-0.339203 0.0644005,-0.120301 0.129201,-0.233502 0.194002,-0.339203 0.194402,-0.361703 0.368403,-0.734906 0.522204,-1.11951 0.153701,-0.384203 0.287102,-0.764806 0.400603,-1.14191 0.129601,-0.392103 0.242702,-0.810207 0.340103,-1.25511 0.0969008,-0.444604 0.177801,-0.923408 0.242602,-1.43621l0 -0.0450004zm13.7426 5.29194c-0.0648005,0.180701 -0.129601,0.358203 -0.193902,0.531304 -0.0648005,0.173601 -0.137701,0.343203 -0.218602,0.508904 -0.0326003,0.0903007 -0.0690006,0.181001 -0.109201,0.271402 -0.0407003,0.0903007 -0.0852007,0.173501 -0.133901,0.248902 -0.0321003,0.0903007 -0.0728006,0.180601 -0.121101,0.271302 -0.0487004,0.0904007 -0.0974008,0.180701 -0.145701,0.271402 -0.259102,0.497404 -0.558605,0.976308 -0.898607,1.43581 -0.339703,0.459904 -0.720406,0.893407 -1.14091,1.30051 -0.404903,0.422103 -0.858007,0.731306 -1.35991,0.927408 -0.501804,0.196002 -1.04391,0.293802 -1.62661,0.293802 -0.485804,0 -0.902507,-0.0753006 -1.25061,-0.226002 -0.348103,-0.151101 -0.627205,-0.392103 -0.837707,-0.723806 -0.210502,-0.331703 -0.380303,-0.678506 -0.509904,-1.04021 -0.129601,-0.362103 -0.218502,-0.738806 -0.267202,-1.13091 -0.0161001,-0.0903007 -0.0322003,-0.184602 -0.0483004,-0.282802 -0.0165001,-0.0978008 -0.0246002,-0.199602 -0.0246002,-0.305303 0,-0.0449004 0,-0.0903007 0,-0.135701 0,-0.0449004 0,-0.0978008 0,-0.158101 0,-0.0454004 0,-0.0904007 0,-0.135701 0,-0.0454004 0,-0.0904007 0,-0.135701 0,-0.211002 0.00810007,-0.418503 0.0246002,-0.622105 0.0161001,-0.203502 0.0322003,-0.418103 0.0483004,-0.644505 0.0326003,-0.211002 0.0690006,-0.429504 0.109201,-0.655605 0.0407003,-0.226402 0.0852007,-0.452404 0.133901,-0.678406 0.193902,-0.769206 0.469204,-1.50761 0.825407,-2.21642 0.356103,-0.708506 0.801207,-1.38691 1.33531,-2.03542 0.534404,-0.648105 1.16161,-1.13441 1.88202,-1.45861 0.719906,-0.324303 1.53351,-0.486004 2.44022,-0.486004 0.242602,0 0.481504,0.0150001 0.716106,0.0450004 0.234602,0.0303002 0.465404,0.0828007 0.692006,0.158501 0.226602,0.0600005 0.445104,0.135701 0.655605,0.226002 0.210502,0.0904007 0.420903,0.188602 0.631405,0.293902 0,-0.0603005 0.0119001,-0.116701 0.0364003,-0.169601 0.0242002,-0.0529004 0.0445004,-0.101801 0.0606005,-0.146701 0.0322003,-0.0454004 0.0766006,-0.0793007 0.133401,-0.101801 0.0567005,-0.0229002 0.125401,-0.0339003 0.206702,-0.0339003l0.971008 -0.0454004c0.0809007,0.0300002 0.149501,0.0564005 0.206302,0.0793007 0.0567005,0.0225002 0.101201,0.0489004 0.133401,0.0789006 0.0326003,0.0453004 0.0610005,0.0943008 0.0851007,0.147101 0.0242002,0.0529004 0.0364003,0.116801 0.0364003,0.192102l-0.655505 11.6241c-0.0161001,0.105701 -0.0365003,0.188602 -0.0606005,0.248902 -0.0241002,0.0604005 -0.0525004,0.105701 -0.0851007,0.135701 -0.0483004,0.0300002 -0.101201,0.0489004 -0.157601,0.0564005 -0.0567005,0.00750006 -0.125701,0.0114001 -0.206602,0.0114001l-1.16551 0c-0.0809007,0 -0.149501,-0.00390003 -0.206202,-0.0114001 -0.0568005,-0.00750006 -0.101301,-0.0339003 -0.133401,-0.0789006 -0.0327003,-0.0304002 -0.0568005,-0.0753006 -0.0729006,-0.135701 -0.0165001,-0.0603005 -0.0245002,-0.120701 -0.0245002,-0.181001l0.291302 -5.38234zm0.509904 -5.17914c-0.161801,-0.0599005 -0.335803,-0.124201 -0.521704,-0.192102 -0.186402,-0.0678006 -0.368503,-0.124201 -0.546404,-0.169601 -0.194302,-0.0450004 -0.388703,-0.0828007 -0.582705,-0.112801 -0.194402,-0.0304002 -0.388803,-0.0454004 -0.582705,-0.0454004 -0.696206,0 -1.31541,0.128201 -1.85752,0.384203 -0.542504,0.256402 -0.999908,0.633505 -1.37211,1.13091 -0.372303,0.497404 -0.687806,1.02161 -0.947008,1.57191 -0.258702,0.550205 -0.453104,1.12691 -0.582705,1.73001 -0.0483004,0.226102 -0.0889007,0.452104 -0.121101,0.678506 -0.0326003,0.226002 -0.0648005,0.452004 -0.0974008,0.678406 -0.0161001,0.226102 -0.0322003,0.441004 -0.0483004,0.644605 -0.0165001,0.203502 -0.0245002,0.403103 -0.0245002,0.599105 0,0.0604005 0,0.132201 0,0.215002 0,0.0828007 0,0.162101 0,0.237502 0,0.0753006 0.00420003,0.154201 0.0122001,0.237402 0.00810007,0.0829007 0.0204002,0.162101 0.0365003,0.237502 0.0321003,0.226002 0.0770006,0.441004 0.133401,0.644505 0.0567005,0.203502 0.133801,0.395603 0.230802,0.576705 0.0969008,0.180701 0.222702,0.316303 0.376403,0.407103 0.153801,0.0903007 0.335903,0.135701 0.546404,0.135701 0.258702,0 0.501404,-0.0415003 0.728406,-0.124701 0.226502,-0.0828007 0.437004,-0.214602 0.631005,-0.395603 0.194402,-0.181101 0.380303,-0.369203 0.558605,-0.565305 0.177901,-0.196002 0.340103,-0.399503 0.485704,-0.610605 0.0322003,-0.0453004 0.0606005,-0.0868007 0.0847007,-0.124601 0.0246002,-0.0375003 0.0525004,-0.0789006 0.0852007,-0.124301 0.0160001,-0.0299002 0.0402003,-0.0678006 0.0728006,-0.113201 0.0322003,-0.0449004 0.0567005,-0.0903007 0.0728006,-0.135701 0.0487004,-0.0753006 0.0970008,-0.154201 0.145701,-0.237402 0.0487004,-0.0829007 0.0970008,-0.154301 0.145701,-0.214602 0.340103,-0.527804 0.663605,-1.07051 0.971108,-1.62831 0.307403,-0.557705 0.598805,-1.12341 0.874107,-1.69611 0.275302,-0.573105 0.506104,-1.15731 0.692006,-1.75291 0.186302,-0.595305 0.319703,-1.20231 0.400603,-1.82041l0 -0.0454004zm16.4623 7.35026c0.0809007,-0.271402 0.174101,-0.539204 0.279502,-0.803107 0.105001,-0.263502 0.214302,-0.531404 0.327803,-0.802707 0.0644005,-0.135701 0.125401,-0.271402 0.182101,-0.407103 0.0563005,-0.135701 0.109301,-0.271402 0.157601,-0.407103l2.54942 -6.28675c0.0326003,-0.105701 0.0889007,-0.181001 0.170301,-0.226402 0.0808007,-0.0450004 0.177801,-0.0679006 0.291302,-0.0679006l2.42792 -0.0224002c0.0322003,0.0150001 0.0606005,0.0224002 0.0847007,0.0224002 0.0246002,0 0.0530004,0 0.0852007,0 0.0808007,0.0150001 0.153701,0.0415003 0.218502,0.0793007 0.0648005,0.0375003 0.0970008,0.101801 0.0970008,0.192102l0 0c0,0.0304002 -0.00390003,0.0568005 -0.0119001,0.0793007 -0.00800007,0.0225002 -0.0203002,0.0489004 -0.0364003,0.0793007 -0.0161001,0.0150001 -0.0284002,0.0339003 -0.0364003,0.0564005 -0.00810007,0.0225002 -0.0123001,0.0414003 -0.0123001,0.0564005l-4.80764 10.9685c-0.0161001,0.0604005 -0.0322003,0.109301 -0.0482004,0.146801 -0.0166001,0.0378003 -0.0407003,0.0793007 -0.0729006,0.124601 -0.113501,0.271402 -0.251102,0.478504 -0.412903,0.621705 -0.161801,0.143201 -0.429004,0.214902 -0.801307,0.214902l-2.16112 0c-0.404403,0 -0.675906,-0.0792007 -0.813107,-0.237402 -0.137601,-0.158201 -0.246902,-0.388203 -0.327803,-0.689906 0,-0.0300002 -0.00420003,-0.0604005 -0.0122001,-0.0903007 -0.00810007,-0.0300002 -0.0204002,-0.0604005 -0.0365003,-0.0904007l-3.03522 -10.8778c0,0 -0.00380003,-0.0114001 -0.0118001,-0.0339003 -0.00810007,-0.0229002 -0.0123001,-0.0418003 -0.0123001,-0.0568005 -0.0161001,-0.0450004 -0.0284002,-0.0903007 -0.0364003,-0.135701 -0.00810007,-0.0449004 -0.0123001,-0.0903007 -0.0123001,-0.135701 0,-0.120701 0.0364003,-0.196002 0.109201,-0.226002 0.0729006,-0.0304002 0.166101,-0.0454004 0.279602,-0.0454004l2.96192 -0.0224002c0.113501,0.0150001 0.218502,0.0414003 0.315903,0.0793007 0.0970008,0.0374003 0.153801,0.116701 0.169801,0.237402l1.31121 5.33694c0.0648005,0.301702 0.129601,0.591705 0.194402,0.870507 0.0644005,0.279302 0.129101,0.554205 0.193902,0.825607 0.0487004,0.286402 0.0974008,0.569205 0.145701,0.848107 0.0487004,0.278902 0.0974008,0.561705 0.145701,0.848107l0 -0.0225002zm7.50276 3.16583l0.655605 -11.7823c0,-0.120701 0.0444004,-0.214902 0.133801,-0.282802 0.0889007,-0.0678006 0.206202,-0.101801 0.351903,-0.101801l2.64652 -0.0224002c0.145601,0.0150001 0.254902,0.0564005 0.327703,0.124201 0.0729006,0.0679006 0.109301,0.169601 0.109301,0.305303l-0.655605 11.7598c-0.0161001,0.166101 -0.0648005,0.282802 -0.145601,0.350703 -0.0809007,0.0678006 -0.202502,0.101701 -0.364303,0.101701l-2.62232 0c-0.161701,0 -0.274802,-0.0378003 -0.339603,-0.113201 -0.0648005,-0.0753006 -0.0974008,-0.180601 -0.0974008,-0.316303l0 -0.0229002zm0.558605 -14.7674c0,-0.0304002 0,-0.0679006 0,-0.113301 0,-0.0449004 0,-0.0978008 0,-0.158101 0.0161001,-0.452504 0.0851007,-0.833107 0.206202,-1.14201 0.121601,-0.309203 0.490004,-0.463804 1.10491,-0.463804l1.67541 0c0.340103,0.0150001 0.619105,0.0828007 0.837707,0.200002 0.218502,0.120301 0.327803,0.342703 0.327803,0.670906 0,0.0903007 0,0.177101 0,0.256002 0,0.0832007 -0.00810007,0.169601 -0.0242002,0.260302 0,0.0864007 -0.00420003,0.173201 -0.0123001,0.256002 -0.00800007,0.0833007 -0.0122001,0.166101 -0.0122001,0.256402 -0.0161001,0.392103 -0.161801,0.641005 -0.437104,0.746306 -0.275302,0.105701 -0.598805,0.158601 -0.971108,0.158601l-1.55381 -0.0229002c-0.324003,0.0150001 -0.595005,-0.0489004 -0.813507,-0.192102 -0.218502,-0.143201 -0.327803,-0.373103 -0.327803,-0.689906l0 -0.0224002zm13.8159 10.1768c-0.0648005,0.226002 -0.133901,0.444604 -0.206702,0.655605 -0.0729006,0.211402 -0.157601,0.422403 -0.255002,0.633505 -0.420903,1.01021 -1.02781,1.92962 -1.82101,2.75872 -0.793207,0.829607 -1.81301,1.24411 -3.05933,1.24411 -1.14901,0 -1.95032,-0.369603 -2.40382,-1.10841 -0.453204,-0.738806 -0.711906,-1.56041 -0.776706,-2.46492 0,-0.105701 -0.00420003,-0.214902 -0.0123001,-0.327803 -0.00800007,-0.113201 -0.0123001,-0.229902 -0.0123001,-0.350603 0,-0.422103 0.0284002,-0.867007 0.0851007,-1.33441 0.0568005,-0.467104 0.133401,-0.934508 0.230902,-1.40191 0.372203,-1.53801 1.06421,-2.94772 2.07592,-4.22933 1.01181,-1.28121 2.41572,-1.92212 4.21263,-1.92212 0.420903,0 0.829607,0.0414003 1.22601,0.124601 0.396803,0.0828007 0.772906,0.214602 1.12901,0.395603l0.243102 -4.36454c0.0161001,-0.135701 0.0686006,-0.230002 0.157601,-0.282802 0.0889007,-0.0529004 0.206602,-0.0793007 0.352303,-0.0793007l2.74342 -0.0225002c0.145701,0.0150001 0.259202,0.0489004 0.340103,0.101801 0.0809007,0.0528004 0.121101,0.154601 0.121101,0.305303l-0.922408 16.26c-0.0160001,0.166101 -0.0647005,0.282802 -0.145601,0.350703 -0.0809007,0.0678006 -0.202502,0.101701 -0.364203,0.101701l-2.74392 0c-0.145701,0 -0.254902,-0.0414003 -0.327803,-0.124201 -0.0728006,-0.0832007 -0.109201,-0.185002 -0.109201,-0.305303l0.243102 -4.61354zm0.315503 -5.35974c-0.210502,-0.0604005 -0.433304,-0.105801 -0.667905,-0.135701 -0.234602,-0.0304002 -0.465404,-0.0454004 -0.692006,-0.0454004 -1.16551,0 -2.03152,0.411003 -2.59772,1.23271 -0.566705,0.821607 -0.938908,1.72251 -1.11721,2.70232 -0.0809007,0.361703 -0.133401,0.716306 -0.157601,1.06311 -0.0245002,0.346703 -0.0364003,0.670906 -0.0364003,0.972308 0,0.0603005 0,0.124201 0,0.192102 0,0.0678006 0.00810007,0.139601 0.0242002,0.214902 0.0161001,0.286402 0.0851007,0.550305 0.206202,0.791707 0.121601,0.241002 0.327803,0.361703 0.619205,0.361703 0.291302,0 0.538204,-0.0828007 0.740706,-0.248902 0.202402,-0.165701 0.384503,-0.346703 0.546304,-0.542704 0.0322003,-0.0300002 0.0605005,-0.0639005 0.0851007,-0.101801 0.0241002,-0.0375003 0.0525004,-0.0714006 0.0847007,-0.101801 0.761006,-0.919408 1.42041,-1.91072 1.97902,-2.97372 0.558605,-1.06311 0.886407,-2.18252 0.983408,-3.35843l0 -0.0224002zm13.7913 5.35974c-0.0483004,0.211002 -0.109301,0.418103 -0.182101,0.621705 -0.0729006,0.203502 -0.149501,0.403503 -0.230402,0.599505 -0.421003,1.02521 -1.04011,1.96002 -1.85752,2.80422 -0.817807,0.844107 -1.85742,1.26651 -3.12033,1.26651 -1.10071,0 -1.87742,-0.358103 -2.33092,-1.07441 -0.453204,-0.716006 -0.720406,-1.51121 -0.801307,-2.38572 0,-0.135701 -0.00380003,-0.271302 -0.0119001,-0.407003 -0.00800007,-0.135701 -0.0122001,-0.271402 -0.0122001,-0.407103 0,-0.422103 0.0283002,-0.867007 0.0851007,-1.33441 0.0563005,-0.467404 0.141401,-0.942408 0.254902,-1.42481 0.356203,-1.52251 1.03971,-2.92092 2.05142,-4.19493 1.01181,-1.27411 2.40812,-1.91112 4.18843,-1.91112 0.485804,0 0.947008,0.0568005 1.38401,0.169601 0.437104,0.113201 0.866107,0.260302 1.28701,0.441004 0,-0.105301 0.0242002,-0.192102 0.0729006,-0.260002 0.0487004,-0.0678006 0.129601,-0.101701 0.242602,-0.101701l2.64652 -0.0225002c0.145701,0.0150001 0.254902,0.0678006 0.327803,0.158201 0.0728006,0.0903007 0.109201,0.196002 0.109201,0.316703l-0.655505 11.7369c0,0.166101 -0.0445004,0.282802 -0.133401,0.350703 -0.0890007,0.0678006 -0.214302,0.101701 -0.376103,0.101701l-2.74392 0c-0.161701,0 -0.275202,-0.0378003 -0.340003,-0.113201 -0.0648005,-0.0753006 -0.0970008,-0.180601 -0.0970008,-0.316303l0.242702 -4.61354zm0.607305 -5.24694c-0.259202,-0.105401 -0.526504,-0.180701 -0.801307,-0.226102 -0.275302,-0.0453004 -0.558605,-0.0678006 -0.850007,-0.0678006 -1.19801,0 -2.07592,0.418503 -2.63452,1.25511 -0.558205,0.836707 -0.926708,1.76051 -1.10451,2.77022 -0.0813007,0.377103 -0.133801,0.750306 -0.158001,1.11951 -0.0241002,0.369603 -0.0364003,0.712406 -0.0364003,1.02911 0,0.0150001 0,0.0339003 0,0.0564005 0,0.0229002 0,0.0418003 0,0.0568005 0.0161001,0.316403 0.0809007,0.603105 0.194402,0.859107 0.113101,0.256402 0.331603,0.384603 0.655605,0.384603 0.242602,0 0.497604,-0.0978008 0.764806,-0.293902 0.266802,-0.196002 0.537804,-0.452404 0.813107,-0.769106 0.307503,-0.361703 0.611105,-0.776306 0.910507,-1.24371 0.299402,-0.467404 0.570905,-0.949908 0.813607,-1.44731 0.388303,-0.708806 0.712306,-1.38721 0.971008,-2.03532 0.259202,-0.648505 0.413003,-1.12341 0.461704,-1.42481l0 -0.0228002z"/>
   <path id="_151403984" class="fil1" d="M38.4634 0l37.6465 0 5.05724 0 37.0854 0 12.4747 0 -0.291602 58.0907 -0.270202 0.279502 0 42.5306c0,6.10325 -5.36044,11.0961 -11.9129,11.0961l-39.8951 0 -39.894 0 -11.9136 0 0.0507004 -10.0814c-0.0328003,-0.334303 -0.0507004,-0.672906 -0.0507004,-1.01471l0 -89.8043c0,-6.10335 5.36114,-11.0965 11.9136,-11.0965z"/>
   <path id="_151403912" class="fil2" style="mask:url(#id0)" d="M38.4635 0l37.6464 0 5.05724 0 37.0854 0 12.4747 0 -0.291602 58.0907 -0.270102 0.279602 0 42.5305c0,6.10325 -5.36064,11.0961 -11.913,11.0961l-39.8952 0 -39.8938 0 -11.9137 0 0.0507004 -10.0815c-0.0329003,-0.334303 -0.0507004,-0.672806 -0.0507004,-1.01461l0 -89.8043c0,-6.10335 5.36124,-11.0965 11.9137,-11.0965z"/>
   <path id="_151403840" class="fil3" d="M27.5508 125.859l2.10232 -0.183002c0.124001,0.626805 0.381103,1.08591 0.769406,1.37941 0.386303,0.291102 0.906807,0.439004 1.56441,0.439004 0.695006,0 1.22011,-0.130201 1.57161,-0.392903 0.353203,-0.260302 0.530704,-0.564805 0.530704,-0.913508 0,-0.225302 -0.0750006,-0.415003 -0.224502,-0.571605 -0.146901,-0.158901 -0.406103,-0.295802 -0.776706,-0.410203 -0.251502,-0.0797007 -0.829607,-0.216602 -1.72911,-0.415003 -1.15781,-0.254002 -1.96972,-0.567205 -2.43552,-0.938008 -0.657705,-0.520604 -0.986808,-1.15611 -0.986808,-1.90672 0,-0.483204 0.154601,-0.933308 0.463704,-1.35501 0.308403,-0.419303 0.754706,-0.739206 1.33451,-0.959608 0.583105,-0.218602 1.28321,-0.329003 2.10522,-0.329003 1.34501,0 2.35382,0.260302 3.03352,0.781406 0.677606,0.523004 1.03381,1.21801 1.06851,2.08982l-2.15942 0.0836007c-0.0923008,-0.487504 -0.291402,-0.838607 -0.595505,-1.05041 -0.303602,-0.213802 -0.759306,-0.319903 -1.36701,-0.319903 -0.628105,0 -1.12141,0.112401 -1.47461,0.342003 -0.229602,0.145501 -0.343903,0.342003 -0.343903,0.586905 0,0.225202 0.107101,0.417303 0.321403,0.576305 0.271102,0.202702 0.934308,0.414603 1.98542,0.633105 1.05071,0.220902 1.82782,0.448104 2.33092,0.682006 0.503104,0.235902 0.897007,0.556205 1.18331,0.964408 0.283702,0.408303 0.426004,0.911207 0.426004,1.50921 0,0.543104 -0.169401,1.05281 -0.510704,1.52491 -0.341403,0.474504 -0.822007,0.827607 -1.44501,1.05711 -0.622105,0.231602 -1.39971,0.346403 -2.32882,0.346403 -1.35221,0 -2.39072,-0.275802 -3.11573,-0.829607 -0.724606,-0.554205 -1.15831,-1.36161 -1.29761,-2.42112zm20.1625 3.08303l-2.35122 0 -0.933908 -2.15372 -4.27694 0 -0.881307 2.15372 -2.29152 0 4.16723 -9.47788 2.28392 0 4.28374 9.47788zm-3.97753 -3.74923l-1.47461 -3.51773 -1.44451 3.51773 2.91912 0zm-3.14573 -6.25165l-0.934308 0c-0.00500004,-0.0994008 -0.00760006,-0.176701 -0.00760006,-0.233902 0,-0.452504 0.124501,-0.801207 0.371403,-1.04371 0.249002,-0.243002 0.567505,-0.364503 0.956308,-0.364503 0.169801,0 0.329003,0.0158001 0.476004,0.0485004 0.144001,0.0312003 0.410803,0.123901 0.797007,0.278102 0.388403,0.152201 0.689906,0.229602 0.908807,0.229602 0.156701,0 0.286302,-0.0442004 0.390903,-0.130201 0.104601,-0.0860007 0.172001,-0.231602 0.199502,-0.432304l0.949108 0c-0.00510004,0.580205 -0.127101,0.997108 -0.368903,1.24681 -0.238902,0.249302 -0.550105,0.375103 -0.928708,0.375103 -0.166901,0 -0.329103,-0.0157001 -0.490404,-0.0465004 -0.110201,-0.0241002 -0.391403,-0.112401 -0.837307,-0.264702 -0.448104,-0.150301 -0.774606,-0.225202 -0.978708,-0.225202 -0.154601,0 -0.276502,0.0418003 -0.363803,0.125801 -0.0898007,0.0840007 -0.134701,0.229602 -0.139301,0.437104zm7.83056 5.32034c0,-0.966408 0.162201,-1.77661 0.488704,-2.43182 0.243902,-0.481204 0.575105,-0.915908 0.995608,-1.29971 0.421403,-0.381803 0.882207,-0.666605 1.38271,-0.852007 0.667905,-0.251302 1.43481,-0.375103 2.30642,-0.375103 1.57671,0 2.83702,0.432704 3.78353,1.29971 0.946508,0.865007 1.42001,2.07012 1.42001,3.61273 0,1.53131 -0.471304,2.72732 -1.41021,3.59233 -0.938908,0.863007 -2.19422,1.29541 -3.76323,1.29541 -1.59201,0 -2.85692,-0.430404 -3.79583,-1.28871 -0.939408,-0.860707 -1.40771,-2.04562 -1.40771,-3.55283zm2.22462 -0.0639005c0,1.07251 0.281202,1.88662 0.838907,2.44042 0.560705,0.554205 1.27101,0.830007 2.13232,0.830007 0.859307,0 1.56661,-0.273802 2.11972,-0.825207 0.550505,-0.549505 0.827007,-1.37271 0.827007,-2.47162 0,-1.08601 -0.269302,-1.89582 -0.804207,-2.43182 -0.538204,-0.534104 -1.25311,-0.801107 -2.14252,-0.801107 -0.891807,0 -1.60881,0.271302 -2.15432,0.812107 -0.543304,0.540404 -0.816907,1.35501 -0.816907,2.44722zm13.9611 4.74444l0 -9.47788 3.23263 0 1.94002 6.46585 1.91802 -6.46585 3.24063 0 0 9.47788 -2.00522 0 0 -7.46106 -2.12432 7.46106 -2.07982 0 -2.11752 -7.46106 0 7.46106 -2.00442 0zm22.125 0l-2.35132 0 -0.934208 -2.15372 -4.27654 0 -0.881707 2.15372 -2.29152 0 4.16723 -9.47788 2.28392 0 4.28414 9.47788zm-3.97753 -3.74923l-1.47461 -3.51773 -1.44501 3.51773 2.91962 0zm5.12814 3.74923l0 -9.47788 4.54844 0c1.14301,0 1.97222,0.0860007 2.49062,0.256002 0.518404,0.169601 0.933808,0.472204 1.24511,0.906807 0.311703,0.437104 0.465804,0.933308 0.465804,1.49381 0,0.710806 -0.236302,1.30011 -0.707206,1.76321 -0.470904,0.461504 -1.17821,0.755006 -2.11712,0.874107 0.468404,0.242602 0.854207,0.507704 1.15831,0.796407 0.303602,0.289102 0.712306,0.801107 1.22771,1.53831l1.30781 1.84922 -2.58292 0 -1.56151 -2.06332c-0.555605,-0.736906 -0.934208,-1.20031 -1.13831,-1.39241 -0.204602,-0.192102 -0.421003,-0.322303 -0.650105,-0.394903 -0.229502,-0.0706006 -0.590405,-0.106101 -1.08881,-0.106101l-0.435804 0 0 3.95673 -2.16202 0zm2.16202 -5.47064l1.59661 0c1.03591,0 1.68381,-0.0375003 1.94302,-0.114801 0.256202,-0.0769006 0.458204,-0.211802 0.605205,-0.401503 0.144401,-0.189702 0.219302,-0.426004 0.219302,-0.710406 0,-0.320303 -0.0974008,-0.575905 -0.288802,-0.772406 -0.192302,-0.196402 -0.463704,-0.320203 -0.814807,-0.373103 -0.174101,-0.0197002 -0.700006,-0.0308003 -1.57671,-0.0308003l-1.68381 0 0 2.40302zm15.47 1.98612l2.09252 0.586905c-0.321403,1.03501 -0.854607,1.80301 -1.60161,2.30632 -0.744506,0.501004 -1.69401,0.752306 -2.84212,0.752306 -1.41961,0 -2.58762,-0.430404 -3.50193,-1.28871 -0.914408,-0.860707 -1.37221,-2.03692 -1.37221,-3.52643 0,-1.57781 0.460804,-2.80252 1.37981,-3.67623 0.919008,-0.871807 2.12722,-1.30881 3.62643,-1.30881 1.30781,0 2.37122,0.342003 3.18813,1.02831 0.488304,0.403903 0.852107,0.986508 1.09601,1.74581l-2.13952 0.452104c-0.124501,-0.491904 -0.388303,-0.880407 -0.791907,-1.16521 -0.401103,-0.284402 -0.889407,-0.425603 -1.46191,-0.425603 -0.792407,0 -1.43741,0.251602 -1.93082,0.756906 -0.492904,0.502904 -0.739806,1.31941 -0.739806,2.44952 0,1.19801 0.241802,2.05202 0.730106,2.55962 0.485304,0.510004 1.11801,0.763706 1.89562,0.763706 0.575105,0 1.06841,-0.161401 1.48181,-0.485604 0.413303,-0.322303 0.709806,-0.831907 0.891407,-1.52491zm3.50963 -1.19601c0,-0.966408 0.162201,-1.77661 0.488304,-2.43182 0.243902,-0.481204 0.575505,-0.915908 0.996008,-1.29971 0.421403,-0.381803 0.882207,-0.666605 1.38231,-0.852007 0.667905,-0.251302 1.43481,-0.375103 2.30682,-0.375103 1.57631,0 2.83702,0.432704 3.78353,1.29971 0.946608,0.865007 1.41961,2.07012 1.41961,3.61273 0,1.53131 -0.470904,2.72732 -1.40981,3.59233 -0.938908,0.863007 -2.19422,1.29541 -3.76363,1.29541 -1.59151,0 -2.85702,-0.430404 -3.79593,-1.28871 -0.938808,-0.860707 -1.40721,-2.04562 -1.40721,-3.55283zm2.22422 -0.0639005c0,1.07251 0.281602,1.88662 0.839307,2.44042 0.560305,0.554205 1.27051,0.830007 2.13192,0.830007 0.859307,0 1.56701,-0.273802 2.12012,-0.825207 0.550505,-0.549505 0.827107,-1.37271 0.827107,-2.47162 0,-1.08601 -0.269402,-1.89582 -0.804707,-2.43182 -0.538304,-0.534104 -1.25271,-0.801107 -2.14252,-0.801107 -0.891407,0 -1.60881,0.271302 -2.15432,0.812107 -0.542904,0.540404 -0.816907,1.35501 -0.816907,2.44722zm9.29078 1.66141l2.10222 -0.183002c0.124501,0.626805 0.381203,1.08591 0.769506,1.37941 0.386203,0.291102 0.906707,0.439004 1.56441,0.439004 0.695006,0 1.22051,-0.130201 1.57161,-0.392903 0.353603,-0.260302 0.530604,-0.564805 0.530604,-0.913508 0,-0.225302 -0.0745006,-0.415003 -0.224402,-0.571605 -0.146501,-0.158901 -0.405703,-0.295802 -0.776706,-0.410203 -0.251602,-0.0797007 -0.829607,-0.216602 -1.72871,-0.415003 -1.15831,-0.254002 -1.97012,-0.567205 -2.43602,-0.938008 -0.657205,-0.520604 -0.986308,-1.15611 -0.986308,-1.90672 0,-0.483204 0.154201,-0.933308 0.463304,-1.35501 0.308703,-0.419303 0.754706,-0.739206 1.33491,-0.959608 0.582705,-0.218602 1.28321,-0.329003 2.10482,-0.329003 1.34501,0 2.35382,0.260302 3.03392,0.781406 0.677606,0.523004 1.03371,1.21801 1.06851,2.08982l-2.15992 0.0836007c-0.0923008,-0.487504 -0.291302,-0.838607 -0.595405,-1.05041 -0.303602,-0.213802 -0.759306,-0.319903 -1.36711,-0.319903 -0.627605,0 -1.12101,0.112401 -1.47461,0.342003 -0.229102,0.145501 -0.343403,0.342003 -0.343403,0.586905 0,0.225202 0.107101,0.417303 0.321403,0.576305 0.271002,0.202702 0.933808,0.414603 1.98492,0.633105 1.05071,0.220902 1.82832,0.448104 2.33142,0.682006 0.503104,0.235902 0.896507,0.556205 1.18281,0.964408 0.284202,0.408303 0.426104,0.911207 0.426104,1.50921 0,0.543104 -0.169401,1.05281 -0.510804,1.52491 -0.340903,0.474504 -0.822007,0.827607 -1.44451,1.05711 -0.622605,0.231602 -1.39971,0.346403 -2.32882,0.346403 -1.35231,0 -2.39112,-0.275802 -3.11573,-0.829607 -0.725006,-0.554205 -1.15871,-1.36161 -1.29801,-2.42112z"/>
   <path id="_151403768" class="fil4" d="M30.8639 105.348l0 -7.33446 1.67281 0 0 2.88582 3.27503 0 0 -2.88582 1.67151 0 0 7.33446 -1.67151 0 0 -3.20693 -3.27503 0 0 3.20693 -1.67281 0zm8.00887 -3.62223c0,-0.747906 0.124901,-1.37471 0.377803,-1.88162 0.188802,-0.372303 0.445104,-0.708806 0.770706,-1.00581 0.326103,-0.295402 0.682706,-0.515904 1.06981,-0.659505 0.516604,-0.194502 1.11041,-0.290302 1.78501,-0.290302 1.21971,0 2.19542,0.334903 2.92772,1.00581 0.732206,0.669806 1.09851,1.60191 1.09851,2.79592 0,1.18491 -0.363803,2.11072 -1.09051,2.78002 -0.727106,0.667405 -1.69861,1.00231 -2.91282,1.00231 -1.23151,0 -2.21072,-0.332903 -2.93742,-0.997108 -0.726706,-0.666305 -1.08881,-1.58341 -1.08881,-2.74972zm1.72111 -0.0493004c0,0.829907 0.217702,1.46021 0.649605,1.88862 0.433704,0.428704 0.983008,0.642105 1.65001,0.642105 0.664905,0 1.21201,-0.211802 1.64021,-0.638605 0.426004,-0.425203 0.639905,-1.06221 0.639905,-1.91272 0,-0.840107 -0.208402,-1.46691 -0.622505,-1.88192 -0.416303,-0.413403 -0.969408,-0.619705 -1.65761,-0.619705 -0.690306,0 -1.24551,0.209902 -1.66731,0.628405 -0.420603,0.418103 -0.632305,1.04841 -0.632305,1.89382zm7.18936 1.28591l1.62661 -0.141701c0.0966008,0.484804 0.295202,0.840207 0.595905,1.06701 0.298602,0.225702 0.701706,0.340003 1.21041,0.340003 0.537804,0 0.944408,-0.100501 1.21621,-0.304103 0.274002,-0.201502 0.410803,-0.437004 0.410803,-0.706806 0,-0.174401 -0.0580005,-0.321103 -0.173601,-0.442204 -0.113501,-0.123101 -0.313803,-0.228802 -0.601405,-0.317903 -0.194802,-0.0612005 -0.642005,-0.167301 -1.33781,-0.320703 -0.896107,-0.196502 -1.52421,-0.439004 -1.88502,-0.725806 -0.508604,-0.403103 -0.763106,-0.895007 -0.763106,-1.47561 0,-0.374003 0.119401,-0.722306 0.358703,-1.04851 0.238802,-0.324603 0.584005,-0.572305 1.03291,-0.742706 0.451004,-0.169201 0.992708,-0.254802 1.62881,-0.254802 1.04051,0 1.82141,0.201502 2.34782,0.604705 0.523904,0.404703 0.799607,0.942708 0.826707,1.61721l-1.67151 0.0647005c-0.0712006,-0.377103 -0.225302,-0.648905 -0.460404,-0.812607 -0.235002,-0.165701 -0.587805,-0.247702 -1.05831,-0.247702 -0.485804,0 -0.866907,0.0872007 -1.14091,0.264702 -0.177001,0.112801 -0.266002,0.264702 -0.266002,0.454404 0,0.173901 0.0830007,0.322603 0.248602,0.445704 0.210102,0.157001 0.722906,0.320703 1.53611,0.489904 0.813507,0.170801 1.41491,0.346703 1.80451,0.527804 0.389203,0.182602 0.693706,0.430304 0.915208,0.746306 0.219702,0.315903 0.329403,0.705306 0.329403,1.16791 0,0.420103 -0.130801,0.814607 -0.394703,1.18021 -0.264202,0.366903 -0.636505,0.640205 -1.11801,0.817707 -0.481904,0.179501 -1.08331,0.268302 -1.80241,0.268302 -1.04651,0 -1.85032,-0.213402 -2.41102,-0.642205 -0.561105,-0.428404 -0.896507,-1.05361 -1.00451,-1.87322zm8.13797 2.38562l0 -7.33446 2.68122 0c1.01601,0 1.67871,0.0375003 1.98752,0.110801 0.473904,0.109301 0.872807,0.348303 1.19251,0.717206 0.320203,0.368803 0.479804,0.845307 0.479804,1.42791 0,0.450804 -0.0918008,0.829907 -0.276902,1.13561 -0.185502,0.307203 -0.418403,0.547905 -0.703406,0.723806 -0.283802,0.174301 -0.572605,0.290302 -0.865707,0.346703 -0.398903,0.0702006 -0.977408,0.105701 -1.73461,0.105701l-1.08931 0 0 2.76672 -1.67111 0zm1.67111 -6.09315l0 2.08002 0.913908 0c0.659005,0 1.10071,-0.0375003 1.32181,-0.114401 0.221902,-0.0769006 0.395503,-0.196502 0.522604,-0.360203 0.125301,-0.164101 0.188902,-0.353803 0.188902,-0.570305 0,-0.266702 -0.0886007,-0.486804 -0.266002,-0.661105 -0.175301,-0.172401 -0.401003,-0.281702 -0.670806,-0.324703 -0.200302,-0.0339003 -0.601405,-0.0493004 -1.20271,-0.0493004l-0.807707 0zm5.99085 6.09315l0 -7.33446 1.67121 0 0 7.33446 -1.67121 0zm5.12694 0l0 -6.09315 -2.45592 0 0 -1.24131 6.57875 0 0 1.24131 -2.44962 0 0 6.09315 -1.67321 0zm11.8093 0l-1.81891 0 -0.723306 -1.66661 -3.30923 0 -0.682306 1.66661 -1.77361 0 3.22493 -7.33446 1.76731 0 3.31513 7.33446zm-3.07793 -2.90162l-1.14101 -2.72172 -1.11801 2.72172 2.25902 0zm4.00883 2.90162l0 -7.27486 1.67151 0 0 6.03865 4.15543 0 0 1.23621 -5.82695 0z"/>
   <path id="_151403696" class="fil5" d="M34.7974 42.0681c7.04076,-1.76191 15.3601,-3.02322 24.0694,-3.81463 3.99173,-0.362303 8.06527,-0.626705 12.1355,-0.794707 32.2165,-1.33271 64.214,3.32723 53.6145,12.4896 -14.3888,11.909 -81.591,6.49975 -78.847,-1.25001 5.22454,-8.70407 57.0138,-5.20744 65.5425,-4.21113 -23.6877,-0.977108 -52.5354,-1.40881 -56.8191,4.52364 -4.69244,5.36004 54.0846,6.89666 65.2605,-2.18382 2.34282,-3.30263 -14.6275,-8.48747 -48.7698,-7.56296 -3.80583,0.102801 -7.82516,0.282102 -12.0549,0.547905 -7.40456,0.465804 -15.4537,1.19811 -24.1317,2.25612z"/>
   <polygon id="_151403624" class="fil6" points="105.545,4.97404 95.4829,4.97404 95.5084,104.362 105.57,104.269 "/>
   <polygon id="_151403552" class="fil7" style="mask:url(#id2)" points="105.545,4.97404 95.4829,4.97404 95.5083,104.362 105.57,104.269 "/>
   <polygon id="_151403480" class="fil8" points="89.5787,12.012 95.7942,4.97604 95.6878,104.534 89.5787,98.7248 "/>
   <polygon id="_151403408" class="fil9" style="mask:url(#id4)" points="89.5787,12.012 95.7942,4.97604 95.6878,104.534 89.5787,98.7249 "/>
   <polygon id="_151403336" class="fil10" points="58.9012,14.293 66.8551,16.9025 71.0288,9.64818 63.0148,9.65598 "/>
   <polygon id="_151403264" class="fil10" points="58.905,19.2044 65.9891,21.0255 71.0382,14.5241 62.9101,14.5241 "/>
   <polygon id="_151403192" class="fil10" points="58.8891,24.8393 66.4015,26.0725 71.1071,20.1501 62.9951,20.1519 "/>
   <polygon id="_151403120" class="fil10" points="58.8777,30.8626 65.4868,30.8488 71.1074,26.2601 63.0214,26.2776 "/>
   <path id="_151403048" class="fil8" d="M58.8192 34.0688l4.42814 -4.30584 0.00180001 60.9265 -4.42994 -3.55493 0 -53.0657zm4.20913 -26.6863l-4.12633 5.37234 -0.00530004 1.56131 4.12773 -4.63924 0.00390003 -2.29442zm0 3.46043l-4.12633 5.37264 -0.00530004 2.98572 4.12173 -4.57254 0.00990008 -3.78583zm0 5.63155l-4.12633 5.37264 -0.00530004 2.98612 4.12173 -4.57264 0.00990008 -3.78613zm0 6.03895l-4.12633 5.37244 -0.00530004 2.98602 4.12173 -4.57254 0.00990008 -3.78593z"/>
   <path id="_151402976" class="fil9" style="mask:url(#id6)" d="M58.8193 34.0689l4.42814 -4.30594 0.00170001 60.9265 -4.42984 -3.55493 0 -53.0656zm4.20893 -26.6864l-4.12623 5.37224 -0.00530004 1.56131 4.12763 -4.63914 0.00390003 -2.29442zm0 3.46033l-4.12623 5.37274 -0.00530004 2.98572 4.12173 -4.57244 0.00980008 -3.78603zm0 5.63165l-4.12623 5.37274 -0.00530004 2.98592 4.12173 -4.57254 0.00980008 -3.78613zm0 6.03895l-4.12623 5.37244 -0.00530004 2.98592 4.12173 -4.57244 0.00980008 -3.78593z"/>
   <path id="_151402904" class="fil6" d="M63.0114 7.44376l8.02327 0 0 2.23212 -8.02327 0 0 -2.23212zm7.92007 22.3668l-7.71546 0 -0.124701 60.6027 7.71546 0 0.124701 -60.6027zm-7.90677 -7.21576l8.01917 0 0 3.70613 -8.01917 0 0 -3.70613zm0 -6.15775l8.01917 0 0 3.70613 -8.01917 0 0 -3.70613zm-0.0151001 -5.58725l8.03427 0 0 3.70643 -8.03427 0 0 -3.70643z"/>
   <path id="_151402832" class="fil7" style="mask:url(#id8)" d="M63.0113 7.44376l8.02347 0 0 2.23222 -8.02347 0 0 -2.23222zm7.92017 22.3668l-7.71536 0 -0.124801 60.6026 7.71546 0 0.124701 -60.6026zm-7.90667 -7.21566l8.01907 0 0 3.70603 -8.01907 0 0 -3.70603zm0 -6.15785l8.01907 0 0 3.70613 -8.01907 0 0 -3.70613zm-0.0152001 -5.58725l8.03427 0 0 3.70643 -8.03427 0 0 -3.70643z"/>
   <path id="_151402760" class="fil5" d="M86.8608 53.2568c6.46765,-0.0819007 13.5403,-0.783806 20.2577,-1.99522l0.0466004 4.38084c-7.17426,0.995908 -14.0163,1.37501 -20.444,1.21451l0.139701 -3.60013z"/>
   <path id="_98701160" class="fil5" d="M58.0278 51.655c4.53154,0.826207 7.87206,1.20911 13.4501,1.51201l2.92282 3.23123c-6.19365,-0.235602 -12.2888,-0.975408 -18.2647,-2.32242l1.89172 -2.42082z"/>
   <path id="_149395048" class="fil5" d="M76.317 40.137c0.693006,0 1.25831,0.497504 1.25831,1.10751 0,0.610005 -0.565305,1.10761 -1.25831,1.10761 -0.693306,0 -1.25871,-0.497604 -1.25871,-1.10761 0,-0.610005 0.565405,-1.10751 1.25871,-1.10751zm3.93683 0c0.693006,0 1.25841,0.497504 1.25841,1.10751 0,0.610005 -0.565405,1.10761 -1.25841,1.10761 -0.693306,0 -1.25861,-0.497604 -1.25861,-1.10761 0,-0.610005 0.565305,-1.10751 1.25861,-1.10751zm3.87233 0c0.693106,0 1.25841,0.497504 1.25841,1.10751 0,0.610005 -0.565305,1.10761 -1.25841,1.10761 -0.693306,0 -1.25861,-0.497604 -1.25861,-1.10761 0,-0.610005 0.565305,-1.10751 1.25861,-1.10751z"/>
  </g>
 </g>
</svg>
